<?xml version="1.0" encoding="UTF-8" standalone="no"?>
<!-- Created with Inkscape (http://www.inkscape.org/) -->

<svg
   xmlns:dc="http://purl.org/dc/elements/1.1/"
   xmlns:cc="http://creativecommons.org/ns#"
   xmlns:rdf="http://www.w3.org/1999/02/22-rdf-syntax-ns#"
   xmlns:svg="http://www.w3.org/2000/svg"
   xmlns="http://www.w3.org/2000/svg"
   xmlns:sodipodi="http://sodipodi.sourceforge.net/DTD/sodipodi-0.dtd"
   xmlns:inkscape="http://www.inkscape.org/namespaces/inkscape"
   width="120"
   height="50"
   id="svg4580"
   version="1.1"
   inkscape:version="0.48.4 r9939"
   sodipodi:docname="Title.svg">
  <defs
     id="defs4582">
    <filter
       color-interpolation-filters="sRGB"
       inkscape:collect="always"
       id="filter5540-6-2"
       x="-0.048090201"
       width="1.0961804"
       y="-0.31604806"
       height="1.6320961">
      <feGaussianBlur
         inkscape:collect="always"
         stdDeviation="1.6083968"
         id="feGaussianBlur5542-8-7" />
    </filter>
  </defs>
  <sodipodi:namedview
     id="base"
     pagecolor="#ffffff"
     bordercolor="#666666"
     borderopacity="1.0"
     inkscape:pageopacity="0.0"
     inkscape:pageshadow="2"
     inkscape:zoom="5.8953125"
     inkscape:cx="57.505604"
     inkscape:cy="23.184983"
     inkscape:document-units="px"
     inkscape:current-layer="layer4"
     showgrid="false"
     showguides="true"
     inkscape:guide-bbox="true"
     inkscape:window-width="1366"
     inkscape:window-height="706"
     inkscape:window-x="-8"
     inkscape:window-y="-8"
     inkscape:window-maximized="1" />
  <metadata
     id="metadata4585">
    <rdf:RDF>
      <cc:Work
         rdf:about="">
        <dc:format>image/svg+xml</dc:format>
        <dc:type
           rdf:resource="http://purl.org/dc/dcmitype/StillImage" />
        <dc:title></dc:title>
      </cc:Work>
    </rdf:RDF>
  </metadata>
  <g
     inkscape:groupmode="layer"
     id="layer2"
     inkscape:label="BG"
     style="display:inline"
     sodipodi:insensitive="true">
    <path
       style="fill:#62180d;fill-opacity:1;stroke:#000000;stroke-width:1;stroke-linecap:butt;stroke-linejoin:miter;stroke-miterlimit:4;stroke-opacity:1;stroke-dasharray:none;stroke-dashoffset:0"
       d="M 59.538829,43.214948 C 44.376121,33.002514 25.83739,36.964427 9.15982,40.670554 c 6.656792,-5.875147 16.53935,-10.63667 21.542539,-17.641135 10.901735,-4.601286 22.6735,-2.421788 30.871985,4.410284 -1.221512,3.073828 2.585983,19.796123 -2.035515,15.775245 z"
       id="path5261"
       inkscape:connector-curvature="0"
       sodipodi:nodetypes="ccccc" />
    <path
       style="fill:#62180d;fill-opacity:1;stroke:#000000;stroke-width:1.00816357;stroke-linecap:butt;stroke-linejoin:miter;stroke-miterlimit:4;stroke-opacity:1;stroke-dasharray:none;stroke-dashoffset:0;display:inline"
       d="M 64.351191,43.122843 C 79.767838,32.913963 98.617048,36.874497 115.57393,40.579335 108.80565,34.706232 98.757583,29.946366 93.670602,22.944338 82.58629,18.344653 69.78913,20.693078 61.45334,27.522773 c 1.241969,3.072759 -0.96996,19.449687 2.897851,15.60007 z"
       id="path5261-5"
       inkscape:connector-curvature="0"
       sodipodi:nodetypes="ccccc" />
    <path
       style="fill:#62180d;fill-opacity:1;stroke:#000000;stroke-width:1;stroke-linecap:butt;stroke-linejoin:miter;stroke-miterlimit:4;stroke-opacity:1;stroke-dasharray:none;stroke-dashoffset:0"
       d="M 29.175722,25.064935 25.104691,25.234561 4.2406574,41.688312 58.351445,44.741585 58.012192,46.268221 65.815001,46.607474 65.306123,44.232706 118.22953,42.536443 98.213623,24.725682 95.669229,24.556056"
       id="path5281"
       inkscape:connector-curvature="0" />
    <path
       style="fill:#62180d;fill-opacity:1;stroke:#000000;stroke-width:1;stroke-linecap:butt;stroke-linejoin:miter;stroke-miterlimit:4;stroke-opacity:1;stroke-dasharray:none;stroke-dashoffset:0"
       d="m 10.347204,40.84018 c 4.340583,0.191403 8.485368,-0.10137 12.891598,0.339253 4.930963,0.493096 12.950427,-0.357719 18.150014,0.508878 7.683407,1.280568 11.261657,3.672792 19.16777,1.696263"
       id="path5283"
       inkscape:connector-curvature="0"
       sodipodi:nodetypes="cssc" />
    <path
       style="fill:#62180d;fill-opacity:1;stroke:#000000;stroke-width:1;stroke-linecap:butt;stroke-linejoin:miter;stroke-miterlimit:4;stroke-opacity:1;stroke-dasharray:none;stroke-dashoffset:0"
       d="m 64.118739,43.554201 c 14.312881,-0.475036 35.092767,-4.964054 49.022001,-3.2229"
       id="path5285"
       inkscape:connector-curvature="0" />
    <path
       style="fill:#62180d;fill-opacity:1;stroke:#000000;stroke-width:1;stroke-linecap:butt;stroke-linejoin:miter;stroke-miterlimit:4;stroke-opacity:1;stroke-dasharray:none;stroke-dashoffset:0"
       d="m 3.7317784,41.688312 -0.1696263,2.205141 52.0752719,2.035516 0.169626,2.374768 11.534588,0 -0.339253,-2.714021 50.548635,-0.169626 0.33925,-3.222899"
       id="path5355"
       inkscape:connector-curvature="0" />
    <path
       style="fill:#ffffff;fill-opacity:1;stroke:#000000;stroke-width:1px;stroke-linecap:butt;stroke-linejoin:miter;stroke-opacity:1"
       d="M 30.19348,22.350914 10.51683,40.84018 39.862179,41.179433 60.726213,43.384575 83.965015,41.179433 111.95335,39.992049 93.972966,24.216804 79.554731,22.011662 61.913597,27.609329 41.728068,22.011662 z"
       id="path5757"
       inkscape:connector-curvature="0" />
  </g>
  <g
     inkscape:groupmode="layer"
     id="layer3"
     inkscape:label="Layer"
     style="display:inline"
     sodipodi:insensitive="true">
    <path
       style="fill:#000000;fill-opacity:0.2962963;fill-rule:nonzero;stroke:none;display:inline;filter:url(#filter5540-6-2)"
       id="path5514-8"
       d="m 20.919608,36.314688 c 0.481435,0.388716 1.012067,0.713274 1.549966,1.017078 0.08556,0.0416 0.361427,0.190096 0.481818,0.202725 0.03244,0.0034 0.05982,-0.02603 0.08973,-0.03905 -0.856185,0.680495 -1.708342,1.366091 -2.568556,2.041486 -0.01444,0.01134 0.03239,-0.02921 0.02848,-0.04715 -0.01364,-0.06251 -0.05141,-0.117191 -0.07712,-0.175786 -0.784559,-1.393745 -0.701705,-0.437458 2.341361,-2.673312 0.06256,-0.04597 0.13198,0.08181 0.199016,0.12096 0.07627,0.04454 0.153893,0.08672 0.23084,0.130079 0.250311,0.128986 0.485654,0.317721 0.757121,0.404811 0.06336,0.02033 0.132111,0.03843 0.197733,0.02741 0.04458,-0.0075 0.07342,-0.05274 0.11013,-0.07912 -0.830193,0.659674 -1.660386,1.319348 -2.490579,1.979023 0.02463,-0.05046 0.06515,-0.09591 0.0739,-0.151369 0.05771,-0.365558 -0.173322,-0.864566 -0.324213,-1.192446 -0.505503,-1.113775 -0.161803,-0.274193 2.679629,-2.092457 0.06096,-0.03901 0.09317,0.110807 0.141572,0.16461 0.201434,0.223905 0.41954,0.430424 0.636864,0.638605 0.106942,0.08942 0.308495,0.269626 0.439241,0.336209 0.05323,0.02711 0.112821,0.05292 0.172424,0.04888 0.04131,-0.0028 0.13669,-0.09329 0.10419,-0.06763 -2.607385,2.058137 -3.245667,2.731493 -2.413464,1.865942 0.0636,-0.438547 -0.150967,-0.840826 -0.205786,-1.266788 2.516473,-2.153593 1.725028,-2.631009 2.980411,-1.951949 0.144938,0.0784 0.272838,0.134496 0.436016,0.154777 0.80265,-0.857265 0.01838,-0.01204 -2.422775,1.908681 -0.03896,0.03065 0.08454,-0.06026 0.104856,-0.10548 0.02841,-0.06323 0.03092,-0.135825 0.03465,-0.205041 0.01141,-0.211625 -0.01922,-0.34043 -0.05083,-0.548754 -0.363109,-1.620216 -0.242056,-0.865634 2.451213,-2.858157 0.003,-0.0022 0.319892,0.266258 0.34094,0.284025 0.186535,0.137235 0.328394,0.323769 0.50894,0.467673 0.04259,0.03395 0.08231,0.08243 0.136208,0.09028 0.02838,0.0041 0.08272,-0.07915 0.05994,-0.06173 -0.851084,0.651007 -1.697047,1.308682 -2.54557,1.963022 0.03532,-0.03171 0.08615,-0.05199 0.105969,-0.09512 0.136653,-0.297434 -0.0027,-0.823077 -0.09822,-1.119828 -0.409719,-1.180744 -0.15531,-0.328015 2.574524,-2.29129 0.06528,-0.04695 0.120228,0.107017 0.176314,0.164637 0.183719,0.188743 0.356237,0.38829 0.541659,0.576073 0.193445,0.126109 0.343476,0.389755 0.586295,0.437178 0.03314,0.0065 0.08312,-6.7e-5 0.09641,-0.03111 0.0214,-0.04998 0.02946,-0.195866 -0.0135,-0.162548 -0.8449,0.655196 -1.632406,1.381232 -2.448608,2.071848 0.04529,-0.367014 -0.141636,-0.705788 -0.132918,-1.076459 0.88203,-0.721058 1.738498,-1.474567 2.646089,-2.163174 0.02188,-0.0166 0.308343,0.121723 0.403144,0.06074 0.03172,-0.02041 0.08779,-0.120486 0.05829,-0.09698 -0.830072,0.661428 -1.643597,1.343359 -2.465395,2.015039 0.245847,-0.04953 0.07918,-0.807199 0.128136,-0.854093 0.820373,-0.785834 1.689502,-1.519136 2.534254,-2.278704 0.436442,0.3126 0.773533,0.739823 1.160709,1.109256 -0.04465,-0.02243 0.210683,0.192487 0.256181,0.111262 0.0238,-0.04249 0.02013,-0.174835 -0.01833,-0.144958 -0.853893,0.663283 -1.617613,1.43893 -2.482628,2.087641 -0.05662,0.04246 -0.0052,-0.142082 -0.01913,-0.211466 -0.01978,-0.09823 -0.05447,-0.192863 -0.0817,-0.289295 -0.711253,-2.233185 -0.783751,-1.048421 2.127703,-3.668992 0.545028,0.268052 1.014646,0.667294 1.482275,1.050027 0.121364,0.09113 0.28739,0.244609 0.451681,0.277256 0.04001,0.008 0.07965,-0.01769 0.119474,-0.02653 -0.854713,0.653789 -1.712688,1.303334 -2.564138,1.961366 -0.02959,0.02287 0.08013,-0.02216 0.09768,-0.05519 0.02698,-0.05079 0.01502,-0.11404 0.02253,-0.17106 -0.347489,-1.972208 -0.733632,-0.607906 2.525732,-3.016734 0.55426,0.38821 1.072237,0.82507 1.635201,1.200691 0.07437,0.02307 0.14551,0.0756 0.223116,0.06921 0.04626,-0.0038 0.137422,-0.124631 0.100981,-0.09588 -0.835593,0.659214 -1.639209,1.360124 -2.498875,1.987622 -0.05197,0.03793 0.0376,-0.125377 0.03573,-0.189693 -0.0066,-0.227097 -0.08908,-0.445722 -0.153363,-0.6593 -0.04483,-0.110039 -0.0877,-0.220898 -0.134493,-0.330117 -0.168373,-0.39299 -0.09691,-0.204696 -0.252424,-0.548259 -0.02254,-0.04979 -0.104029,-0.114342 -0.0636,-0.151109 2.558995,-2.327095 1.753641,-2.884905 2.816927,-2.000278 0.607328,0.521976 1.201999,1.05657 1.831875,1.551774 0.100447,0.06896 0.197256,0.143545 0.301342,0.20688 0.05118,0.03115 0.315731,0.216504 0.429807,0.11879 0.04604,-0.03944 0.09408,-0.212752 0.0459,-0.17597 -2.496867,1.905986 -2.533733,3.061986 -2.410462,1.713452 -0.06639,-0.553195 -0.132262,-1.134966 -0.351476,-1.652754 0.934528,-0.632321 1.82566,-1.33408 2.803584,-1.896963 0.07194,-0.04141 0.107195,0.126813 0.158758,0.191867 0.286367,0.361283 0.563113,0.727153 0.860631,1.079745 0.192323,0.197474 0.358639,0.461217 0.611134,0.593509 0.0328,0.01719 0.09474,0.05282 0.109484,0.01885 0.02461,-0.05668 0.01046,-0.218249 -0.039,-0.181216 -0.852324,0.638163 -1.634975,1.364438 -2.452463,2.046656 0.07623,-0.447735 -0.08886,-0.884878 -0.09544,-1.332698 2.874248,-2.388829 1.935026,-2.738231 3.535344,-1.482391 0.04783,0.01837 0.09226,0.05518 0.143503,0.0551 0.03332,-5.3e-5 0.05545,-0.03697 0.08317,-0.05546 -0.838717,0.651681 -1.667645,1.316159 -2.516152,1.955042 -0.05405,0.0407 0.09979,-0.09589 0.12842,-0.157198 0.07014,-0.150193 0.09852,-0.451412 0.119881,-0.604404 0.03394,-0.296868 0.02835,-0.595916 0.04655,-0.893685 0.0034,-0.05575 -0.02629,-0.129309 0.01503,-0.166879 2.581788,-2.347155 1.750829,-2.951552 2.811608,-2.020491 0.328141,0.421355 0.544589,0.914986 0.847327,1.353258 -0.155669,-0.05808 0.18387,0.20541 0.191326,0.128878 0.0064,-0.06567 -10e-4,-0.229718 -0.05402,-0.190427 -0.853357,0.632545 -1.594535,1.407402 -2.44549,2.043175 -0.0669,0.04998 0.03368,-0.163931 0.04149,-0.247076 0.01061,-0.112986 0.0091,-0.226783 0.01366,-0.340175 -0.03598,-2.282669 -0.278178,-1.163928 2.786795,-3.377159 0.553056,0.504316 0.933404,1.162762 1.382735,1.756325 0.07482,0.08613 0.142877,0.178638 0.224471,0.25838 0.08382,0.08192 0.236621,0.243172 0.315056,0.156087 0.03747,-0.0416 0.05899,-0.20109 0.01431,-0.16735 -2.376907,1.794927 -2.898452,2.963089 -2.337671,1.788637 0.356547,-1.37096 1.225796,-3.881699 3.151679,-3.202745 0.623263,0.388212 1.071427,1.003249 1.496854,1.590123 0.07291,0.09456 0.140643,0.193353 0.218734,0.283684 0.130587,0.151056 0.246422,0.249209 0.267914,0.161773 0.01707,-0.06947 0.0153,-0.252586 -0.04244,-0.210362 -2.400817,1.755593 -2.674597,3.042511 -2.345267,1.74754 0.31888,-2.120795 0.228096,-1.232994 2.994632,-3.34294 0.637786,0.497997 0.999875,1.257704 1.414034,1.936477 0.218656,0.314313 0.392028,0.670471 0.657796,0.951009 0.04328,0.04568 0.08912,0.09504 0.148039,0.11713 0.02487,0.0093 0.09283,-0.05086 0.07173,-0.03472 -0.85192,0.651629 -1.710301,1.294769 -2.565451,1.942153 0.03521,-0.04045 0.08346,-0.07253 0.105629,-0.121363 0.163664,-0.360592 0.113547,-1.050545 0.128238,-1.454661 0.159651,-1.390314 0.848511,-1.25843 2.701218,-2.589488 0.105475,-0.07578 0.565434,0.486537 0.610216,0.539071 0.395536,0.531484 0.815296,1.048009 1.174267,1.605473 0.0438,0.06341 0.08429,0.12924 0.131404,0.190233 0.03858,0.04995 0.163773,0.169369 0.15645,0.106676 -0.11971,-1.024883 -2.437042,1.759233 -2.502527,1.804303 -0.09418,0.06482 0.02719,-0.227042 0.04078,-0.340564 0.01889,-0.396268 -0.01938,-0.791496 -0.02389,-1.18749 -6.41e-4,-0.0563 0.0018,-0.409996 0.01837,-0.424103 0.868028,-0.740128 1.784816,-1.421085 2.677224,-2.131628 0.537562,0.453693 0.880544,1.098915 1.26182,1.682075 0.06945,0.110453 0.136903,0.222187 0.20835,0.331359 0.05155,0.07878 0.230762,0.36704 0.343204,0.434767 0.02462,0.01483 0.107567,-0.03336 0.08473,-0.01591 -2.757906,2.10768 -3.270713,2.719029 -2.446577,1.770883 0.180907,-0.656532 0.276617,-1.335438 0.516112,-1.975035 0.619039,-1.140564 0.297025,-0.598937 2.778898,-2.278389 0.07089,-0.04797 0.142512,0.09648 0.203793,0.156243 0.212224,0.206976 0.301383,0.494064 0.405772,0.762175 0.25893,0.733262 0.423821,1.499291 0.762185,2.202439 0.02987,0.03733 0.04193,0.115533 0.08961,0.112 0.03948,-0.0029 0.01299,-0.140549 -0.019,-0.117233 -0.869411,0.633635 -1.670314,1.358369 -2.544435,1.98549 -0.06055,0.04344 0.05619,-0.138841 0.07198,-0.211675 0.03771,-0.17389 0.05008,-0.468382 0.06146,-0.639976 0.05936,-2.30976 -0.05835,-1.318356 2.76466,-3.654742 0.656298,0.344625 1.03031,1.010415 1.402882,1.623018 0.06825,0.111246 0.133428,0.22444 0.20476,0.333737 0.04349,0.06663 0.25058,0.379232 0.347952,0.448442 0.02054,0.0146 0.09516,-0.02334 0.07518,-0.008 -2.702263,2.075875 -3.149267,2.887968 -2.527724,1.816074 0.08158,-0.609971 -0.100203,-1.212573 -0.08811,-1.821637 1.692312,-1.641422 2.007878,-3.094605 3.012553,-1.807339 0.197478,0.253024 0.365903,0.523141 0.532945,0.796605 0.03209,0.04881 0.161016,0.275663 0.2473,0.323525 0.01236,0.0069 0.03638,-0.04276 0.02522,-0.03409 -0.873691,0.678755 -1.728363,1.382245 -2.614033,2.045293 -0.02635,0.01973 0.01525,-0.06509 0.01283,-0.09793 -0.0037,-0.04946 -0.02054,-0.09705 -0.03081,-0.145567 -0.04586,-0.179321 -0.20302,-0.60217 -0.178339,-0.622182 2.694139,-2.184529 2.031255,-2.918106 2.856241,-1.851137 0.511515,0.798342 0.9085,1.661092 1.331442,2.507604 0.432348,0.893014 0.871639,1.791428 1.462215,2.592549 -0.004,-0.06906 0.183614,0.273298 0.272651,0.203166 0.03309,-0.02607 0.04106,-0.151584 0.0075,-0.126153 -0.852117,0.645298 -1.647985,1.362507 -2.497214,2.011601 -0.05018,0.03836 0.0677,-0.108359 0.08617,-0.16876 0.02776,-0.09076 0.03407,-0.186739 0.05111,-0.280108 0.08838,-0.66727 0.0232,-1.341796 0.07041,-2.01077 0.859165,-0.753944 1.65455,-1.587467 2.577495,-2.261832 0.08672,-0.06336 0.18165,0.116098 0.262619,0.186656 0.405825,0.35365 0.671508,0.890174 0.951315,1.339357 0.261536,0.381736 0.48755,0.787419 0.772316,1.153228 0.06082,0.07813 0.286392,0.359345 0.367341,0.353922 0.04296,-0.0029 0.02524,-0.08234 0.03786,-0.123509 -3.735357,3.060152 -2.472257,2.702518 -2.316642,1.256911 0.04595,-0.426868 0.04603,-0.859187 0.06262,-1.28781 0.13256,-1.588146 1.15563,-1.681104 2.944133,-2.802213 0.04941,-0.03097 0.468347,0.358779 0.472526,0.36247 0.496825,0.464867 0.792251,1.081098 1.175189,1.631261 0.03674,0.03249 0.0613,0.10081 0.110227,0.09746 0.03512,-0.0024 0.03447,-0.126439 0.0062,-0.105435 -0.859959,0.639259 -1.661955,1.354961 -2.530791,1.982102 -0.0635,0.04583 0.06891,-0.142022 0.08709,-0.218194 0.05281,-0.221293 0.06723,-0.589795 0.08201,-0.805827 0.03178,-0.460791 0.0074,-0.922745 0.03198,-1.383738 0.0024,-0.04499 0.02668,-0.558011 0.102779,-0.628068 0.855162,-0.787277 1.776143,-1.499914 2.664214,-2.249871 0.818852,0.274291 1.354561,1.025567 1.863946,1.683169 0.339317,0.333365 0.952833,1.386104 1.383664,1.522467 -0.06527,-1.222127 0.04609,0.05163 -2.459611,1.823592 -0.08754,0.06191 0.06799,-0.204386 0.08475,-0.310284 0.02296,-0.145098 0.0286,-0.292597 0.03391,-0.439404 0.01617,-0.447261 -0.0041,-0.580621 -0.03353,-1.027761 -0.03031,-0.446042 -0.110034,-0.886827 -0.143675,-1.332491 -0.0063,-0.08299 -0.0255,-0.440713 0.0069,-0.469806 0.851198,-0.765295 1.759255,-1.464883 2.638882,-2.197324 0.543698,0.309208 0.986337,0.772119 1.414715,1.2219 0.06851,0.07628 0.134704,0.154704 0.205515,0.228853 0.06031,0.06316 0.218398,0.23701 0.286894,0.216206 0.03141,-0.0095 0.05184,-0.114922 0.02569,-0.09507 -2.532058,1.92259 -2.888655,2.984021 -2.418809,1.745197 0.161023,-0.918898 0.09276,-1.850667 0.0394,-2.775126 -0.04226,-1.472378 0.515901,-1.128702 2.730936,-2.546629 0.07324,-0.04688 0.691821,0.721471 0.740389,0.781804 0.540341,0.695076 1.018296,1.434937 1.566919,2.123314 0.06883,0.07333 0.13312,0.151216 0.2065,0.219999 0.01133,0.01062 0.21073,0.217579 0.298017,0.142355 0.0396,-0.03413 0.08375,-0.182601 0.04204,-0.151084 -2.422668,1.830815 -2.816619,2.923286 -2.309779,1.678259 0.164366,-0.759622 0.01998,-1.529349 -0.05816,-2.289449 0.0074,-1.425625 0.999671,-1.331841 2.797547,-2.496421 0.0637,-0.04126 0.734298,0.465929 0.797989,0.514636 0.569021,0.491231 1.162921,0.957863 1.843657,1.282765 0.0969,0.0257 0.244838,0.107942 0.341518,0.0053 0.03629,-0.03854 0.09595,-0.18182 0.05422,-0.14926 -0.822284,0.641525 -1.582556,1.360865 -2.414081,1.990366 -0.06593,0.04991 0.0705,-0.150777 0.0902,-0.231085 0.02343,-0.09554 0.02551,-0.195075 0.03826,-0.292612 0.02902,-0.598521 -0.233052,-1.184781 -0.07929,-1.773642 0.921198,-0.710459 1.793076,-1.489932 2.763596,-2.131377 0.0929,-0.0614 0.216102,0.05518 0.32094,0.09272 0.571573,0.204633 1.106155,0.532061 1.624198,0.842695 0.389931,0.177269 1.262485,0.925928 1.671669,0.925084 0.04786,-9.8e-5 0.08718,-0.03951 0.130776,-0.05926 -0.839361,0.657122 -1.678721,1.314244 -2.518081,1.971365 0.02868,-0.03163 0.07469,-0.05373 0.08603,-0.09489 0.02057,-0.0747 0.0095,-0.155115 0.0041,-0.232407 -0.02041,-0.291857 -0.10497,-0.580945 -0.172047,-0.864261 -0.329181,-1.410896 0.128301,-0.905283 2.442625,-2.691772 0.07259,-0.05604 0.584779,0.528223 0.609975,0.557345 0.461748,0.474899 0.783932,1.094463 1.308007,1.505144 0.04764,0.01848 0.09346,0.06827 0.142914,0.05543 0.03856,-0.01001 0.08572,-0.130807 0.0541,-0.106571 -0.836831,0.641436 -1.634111,1.333909 -2.478727,1.96506 -0.05969,0.0446 0.08413,-0.124778 0.109687,-0.194765 0.06354,-0.173981 0.08431,-0.436316 0.106215,-0.614278 0.05121,-1.371361 0.685197,-4.47092 3.051417,-3.059703 0.533583,0.449177 0.909914,1.050935 1.304206,1.618807 0.05826,0.0729 0.546178,0.824793 0.675356,0.657363 0.03565,-0.04621 0.07544,-0.207864 0.02888,-0.172682 -0.829997,0.627126 -1.610384,1.317343 -2.415576,1.976014 0.184507,-0.414522 0.200416,-0.926176 0.111205,-1.371197 0.922486,-0.649296 1.799761,-1.368122 2.767458,-1.94789 0.07123,-0.04268 0.09647,0.135285 0.141024,0.205358 0.05582,0.08779 0.105234,0.179515 0.159963,0.267989 0.210348,0.340047 0.442047,0.658902 0.684729,0.976319 0.286813,0.294832 0.717719,1.006136 1.154242,1.052072 0.749956,-1.153096 -0.54389,0.396561 -2.237238,1.726736 -0.06566,0.05158 0.09393,-0.138529 0.132423,-0.212626 0.122787,-0.236382 0.135809,-0.326823 0.21315,-0.585798 0.47037,-2.237831 -1.086114,-0.320501 2.769428,-2.985868 0.0072,0.534183 0.267407,1.015987 0.560645,1.446439 0.142084,0.185834 0.26227,0.41369 0.463271,0.547136 0.02849,0.01892 0.06562,0.05099 0.0962,0.03567 0.03062,-0.01533 0.05649,-0.119232 0.02924,-0.09849 -0.844837,0.643026 -1.664874,1.318002 -2.497311,1.977003 0.294902,-0.412555 0.232774,-0.960023 0.335355,-1.438144 0.509258,-1.200399 0.193523,-0.531011 2.806122,-2.258677 0.07422,-0.04908 0.156703,0.08463 0.232113,0.131868 0.263698,0.165198 0.466858,0.370218 0.678105,0.596127 0.423204,0.400531 0.691098,0.960428 1.148071,1.323783 0.84726,-0.78172 -0.482391,0.447114 -2.560316,1.96175 -0.03953,0.02881 0.04421,-0.08964 0.049,-0.138326 0.0084,-0.08549 -0.0045,-0.171795 -0.01004,-0.257523 -0.0045,-0.06986 -0.05155,-0.58583 -0.05669,-0.642759 -0.01468,-0.237325 -0.03027,-0.346553 -0.01306,-0.578054 0.09581,-1.288568 2.192631,-2.05006 2.81509,-2.468989 0.06812,-0.04584 0.145216,0.07667 0.217824,0.115012 0.391942,0.311044 0.711794,0.70677 0.945476,1.148134 0.450143,1.206968 0.187893,0.357208 -2.63502,2.256491 -0.07199,0.04843 -0.141179,-0.100923 -0.210569,-0.153008 -0.377082,-0.283044 -0.745482,-0.578359 -1.117273,-0.868238 -0.860029,-0.599764 -1.691915,-1.291447 -2.676255,-1.684101 -0.147953,-0.05902 -0.303284,-0.09752 -0.454926,-0.146286 -0.130798,-0.02017 -0.260103,-0.05675 -0.392393,-0.0605 -0.108456,-0.0031 -0.219276,0.0084 -0.322997,0.04026 -0.08805,0.02703 -0.161395,0.08882 -0.242092,0.133226 0.776879,-0.623515 1.53965,-1.265027 2.330636,-1.870545 0.07646,-0.05853 -0.13355,0.141321 -0.181119,0.225042 -0.05612,0.09877 -0.08436,0.210952 -0.126544,0.316428 -0.196833,0.630629 -0.104191,1.297157 -0.203865,1.939577 -0.871461,0.764764 -1.695635,1.587036 -2.614382,2.294291 -0.07849,0.06042 -0.196323,-0.03012 -0.291578,-0.05727 -0.646106,-0.184181 -1.214814,-0.598946 -1.76469,-0.966982 -0.965896,-0.635847 -1.860056,-1.385339 -2.861985,-1.964966 -0.09878,-0.04023 -0.350484,-0.170082 -0.488685,-0.143826 -0.04572,0.0087 -0.145142,0.116579 -0.108679,0.08766 0.826246,-0.655384 1.646985,-1.317758 2.478033,-1.967045 0.0384,-0.03 -0.07888,0.0634 -0.09855,0.107982 -0.02827,0.0641 -0.02671,0.137538 -0.04006,0.206307 -0.0082,0.433143 0.143669,0.846642 0.173523,1.275872 -0.894951,0.717265 -1.739361,1.502604 -2.684854,2.151796 -0.07888,0.05416 -0.17038,-0.08726 -0.253867,-0.134018 -0.09979,-0.05589 -0.198209,-0.114235 -0.295814,-0.173856 -0.423933,-0.258959 -0.834986,-0.539427 -1.252026,-0.809223 -0.351204,-0.20505 -0.700254,-0.454617 -1.102369,-0.554387 -0.06795,-0.01686 -0.140559,-0.03591 -0.208964,-0.02102 -0.04664,0.01015 -0.148167,0.120402 -0.110855,0.09064 0.829136,-0.661435 1.657556,-1.323768 2.486334,-1.985652 -0.218216,0.259092 -0.02277,0.643418 0.130061,0.894519 0.73109,0.964984 0.198046,0.213708 -2.624996,2.14575 -0.05629,0.03852 -0.09402,-0.09885 -0.141527,-0.147794 -0.286623,-0.295343 -0.590801,-0.570519 -0.892597,-0.850255 -0.659588,-0.471854 -1.294037,-1.151622 -2.079038,-1.409462 -0.640851,1.035418 0.289449,-0.492306 2.468932,-1.912268 0.088,-0.05733 0.05444,0.203472 0.09436,0.300618 0.194661,0.473746 0.479374,0.907074 0.752672,1.337118 0.275677,0.541263 0.810327,0.983887 0.983185,1.580657 0.02106,0.07271 0.07949,0.176625 0.02213,0.226031 -0.8783,0.756521 -1.83489,1.417081 -2.752335,2.125621 -0.85833,-0.36564 -1.610515,-0.926086 -2.348188,-1.48775 -0.101367,-0.06945 -0.197342,-0.147521 -0.304102,-0.20836 -0.07478,-0.04261 -0.264938,-0.137467 -0.375617,-0.09288 -0.03431,0.01382 -0.09821,0.109692 -0.06915,0.08681 2.926558,-2.30357 3.375722,-2.616584 2.42572,-1.948949 -0.550488,1.292949 0.292923,0.280213 -2.843773,2.345854 -0.05962,0.03927 -0.880484,-0.493318 -0.948104,-0.536189 -0.47838,-0.310317 -0.932483,-0.655942 -1.407069,-0.9718 -0.245524,-0.163408 -0.525729,-0.357823 -0.812104,-0.454344 -0.08903,-0.03001 -0.185346,-0.03091 -0.278019,-0.04637 -0.874317,0.951827 0.429251,-0.482238 2.304883,-1.798009 0.06806,-0.04774 -0.03327,0.165937 -0.0226,0.248388 0.01792,0.138542 0.05969,0.273772 0.107157,0.405158 0.142851,0.395429 0.280883,0.596601 0.491528,0.963221 0.281165,0.458812 0.585749,0.901982 0.892836,1.343527 0.182044,0.261754 0.350346,0.520093 0.574756,0.746883 0.08585,-1.170455 -0.0051,0.26015 -2.613233,2.008566 -0.07174,0.04809 -0.07685,-0.155024 -0.122732,-0.228199 -0.07,-0.111642 -0.146068,-0.219496 -0.224421,-0.325444 -0.252624,-0.341593 -0.382833,-0.482055 -0.663159,-0.81069 -0.356181,-0.372175 -0.679313,-0.804017 -1.108568,-1.100265 -0.08424,-0.05814 -0.175499,-0.114725 -0.275845,-0.134915 -0.05452,-0.01097 -0.203346,0.08206 -0.160003,0.04722 0.82478,-0.662911 1.675722,-1.292597 2.513583,-1.938896 -0.02469,0.05191 -0.06988,0.09841 -0.07406,0.155738 -0.03452,0.472719 0.458044,1.48219 0.665568,1.917654 0.141584,0.305805 0.322424,0.596187 0.413217,0.923555 0.01734,0.06253 0.081,0.147374 0.03364,0.191735 -2.541966,2.381238 -1.601954,2.721588 -2.914332,2.09408 -0.962889,-0.590943 -1.947764,-1.128566 -2.976736,-1.595034 -0.410273,-0.139592 -0.9109,-0.437706 -1.372365,-0.327771 -0.08425,0.02007 -0.287201,0.192863 -0.219931,0.13832 2.478897,-2.00991 2.697388,-2.876609 2.327509,-1.673065 0.114614,0.846647 0.607339,1.573048 1.005317,2.31041 0.121457,0.217349 0.272125,0.418835 0.363086,0.652213 0.02386,0.06122 0.114888,0.145395 0.06367,0.18655 -2.662325,2.139174 -1.783617,2.520889 -2.99403,1.882375 -0.527433,-0.268496 -1.048328,-0.693838 -1.65096,-0.757861 -0.04641,0.02649 -0.104534,0.03882 -0.139237,0.07946 -0.03882,0.04545 -0.117058,0.201687 -0.06971,0.165208 0.815021,-0.627939 1.556053,-1.350651 2.390155,-1.953012 0.07118,-0.0514 -0.03861,0.171939 -0.0451,0.259494 -0.01095,0.147607 0.01154,0.389733 0.02255,0.540941 0.06449,1.411519 -0.590599,1.031376 -2.768496,2.411122 -0.0071,0.0045 -0.791514,-0.424123 -0.847976,-0.455257 -0.272498,-0.121774 -0.533086,-0.318178 -0.843931,-0.326314 -0.05482,-0.0014 -0.120868,-0.0059 -0.161612,0.03077 -0.0366,0.03297 -0.07117,0.174712 -0.03255,0.144134 0.838891,-0.664297 1.638679,-1.376535 2.458019,-2.064802 -0.01378,0.02982 -0.03723,0.05687 -0.04135,0.08946 -0.02372,0.187674 0.05268,0.393357 0.07671,0.57702 0.02865,0.219049 0.02009,0.18884 -0.0017,0.39732 -0.370652,1.201741 -1.634729,2.358054 -2.894499,2.417902 -0.216849,0.0103 -0.450643,-0.03214 -0.666426,-0.05226 -0.321647,-0.05982 -0.608405,0.07452 -0.881871,0.231121 -0.193487,0.07755 -0.404986,0.156559 -0.616659,0.162968 -0.05513,0.0017 -0.110394,-0.0239 -0.164793,-0.01481 -0.03572,0.006 -0.06137,0.03848 -0.09206,0.05772 -0.534967,1.052816 -0.03306,0.03317 2.406198,-1.95578 0.0334,-0.02724 -0.05269,0.0692 -0.0702,0.108585 -0.08232,0.185223 -0.08434,0.401607 -0.09903,0.599346 0,0 -2.688354,1.933395 -2.688354,1.933395 l 0,0 c 0.03562,-1.519871 0.209523,-2.76293 2.761237,-3.112799 0.294087,-0.0019 0.562823,-0.11113 0.824585,-0.239352 0.327443,-0.114005 0.633157,-0.167251 0.982315,-0.100707 0.195246,0.0074 0.392592,0.02753 0.576725,-0.0555 0.04886,-0.02203 0.176397,-0.120989 0.136048,-0.08571 -2.277391,1.991297 -3.278528,2.628016 -2.273278,1.981121 0.229028,-0.336072 -0.0038,-0.714408 -0.06107,-1.083002 2.440205,-2.188842 1.84854,-2.835672 3.787284,-1.838541 0.148043,0.07191 0.424109,0.214748 0.590133,0.264203 0.06487,0.01932 0.25061,-0.01554 0.20079,0.03027 -0.785917,0.722782 -1.668636,1.334614 -2.461963,2.049254 -0.06222,0.05605 0.449477,0.0442 0.202358,-0.148866 -3.75e-4,-0.09375 -0.05282,-0.882768 -0.04537,-0.89086 0.592147,-0.643214 1.62871,-2.601987 2.946681,-2.44004 0.588649,0.204953 1.109979,0.557138 1.68652,0.79258 1.269539,0.338191 0.04612,-0.0473 -2.320392,2.111137 -0.04711,0.04297 0.100534,0.107331 0.163729,0.09888 0.04013,-0.0054 0.01493,-0.08225 0.0045,-0.121377 -0.02091,-0.07865 -0.06113,-0.150961 -0.09642,-0.224291 -0.04862,-0.101022 -0.103418,-0.198949 -0.155126,-0.298423 -0.382913,-0.803915 -0.877691,-1.559372 -1.128575,-2.420418 -0.01851,-0.123993 -0.143225,-0.28238 -0.05554,-0.371978 0.871148,-0.890132 1.700565,-2.399831 2.942285,-2.303056 0.488639,0.03808 0.934331,0.290747 1.377928,0.470212 0.285403,0.133607 0.897396,0.417882 1.175376,0.557131 0.506549,0.253747 0.991199,0.557363 1.514589,0.77682 0.111934,0.04693 0.22916,0.08009 0.343741,0.12013 1.23507,-0.181567 0.299342,-0.07821 -2.20278,2.119107 -0.03354,0.02946 0.06647,-0.06944 0.07045,-0.113904 0.01529,-0.170795 -0.108156,-0.417832 -0.166859,-0.554571 -0.05177,-0.120592 -0.107267,-0.239549 -0.160901,-0.359324 -0.344299,-0.743789 -0.69692,-1.501708 -0.879902,-2.30312 0.895682,-0.724214 1.749862,-1.503 2.687044,-2.172642 0.06606,-0.0472 0.156089,0.0497 0.225775,0.09136 0.555824,0.33224 0.922703,0.9246 1.387112,1.358467 0.07145,0.07887 1.192559,1.317967 1.17731,1.334651 -0.763557,0.835402 -1.643951,1.557124 -2.500229,2.297195 -0.0263,0.02274 -0.03699,-0.05888 -0.05548,-0.08832 -0.447144,-0.744878 -0.917924,-1.474429 -1.388605,-2.20462 -0.281651,-0.45674 -0.564351,-0.90555 -0.749153,-1.412528 -0.04459,-0.122325 -0.201055,-0.278274 -0.112766,-0.373966 2.225122,-2.411682 1.472806,-2.411413 2.849184,-2.300887 0.914305,0.383752 1.624408,1.122206 2.511827,1.56158 0.156585,0.08015 0.483148,0.264408 0.678114,0.310676 0.0635,0.01507 0.243895,-0.0406 0.195767,0.0035 -0.784112,0.718219 -1.639059,1.3554 -2.441283,2.05333 -0.03106,0.02702 0.08869,-0.0051 0.119009,-0.03297 0.03148,-0.02892 0.03122,-0.07958 0.04683,-0.119375 0.09264,-1.27958 1.856005,-2.881953 3.028345,-2.210998 0.193889,0.110967 0.341409,0.245948 0.515207,0.387821 0.586189,0.470117 1.229824,1.005684 1.967745,1.215095 0.09086,0.02579 0.187253,0.02491 0.28088,0.03737 -0.783951,0.699482 -1.577219,1.388661 -2.351855,2.098447 -0.03816,0.03497 0.122399,-0.02111 0.138434,-0.07033 0.02613,-0.0802 -0.0062,-0.171082 -0.0338,-0.250781 -0.170279,-0.491318 -0.544892,-0.885034 -0.811545,-1.320517 -0.290952,-0.43733 -0.5784,-0.876023 -0.843776,-1.329572 -0.06438,-0.110031 -0.269091,-0.235585 -0.187351,-0.333413 2.153943,-2.577896 1.423426,-2.819149 2.627496,-2.325939 0.744771,0.432579 1.367815,1.050476 2.07189,1.542708 0.318807,0.262482 0.635285,0.53231 0.968266,0.777089 1.047127,0.769756 0.970912,-0.606206 -2.386938,2.28384 -0.01002,0.0086 0.0251,-0.0083 0.03765,-0.01241 -0.167337,-0.384109 -0.376591,-0.767404 -0.35067,-1.200026 0.88487,-0.735047 1.740115,-1.507295 2.654608,-2.205142 0.05285,-0.04033 0.133154,0.0115 0.197328,0.02884 0.48235,0.13032 0.871275,0.496039 1.299945,0.730282 0.417531,0.260309 0.838204,0.524229 1.285878,0.731319 0.09403,0.0435 0.188692,0.08863 0.289128,0.11405 0.05577,0.01412 0.214552,-0.03653 0.17257,0.0028 -0.784506,0.735057 -1.622641,1.410698 -2.433962,2.116047 0.0315,-0.01612 0.07978,-0.01617 0.09451,-0.04835 0.0786,-0.171741 -0.177005,-0.936541 -0.173895,-1.163654 -2.36e-4,-0.0046 -0.02817,-0.4854 -0.01602,-0.496384 1.835892,-1.658907 1.934518,-2.76627 3.386659,-1.887035 0.944078,0.658992 1.8267,1.4053 2.807378,2.012827 0.44925,0.269562 0.908403,0.571686 1.426992,0.694006 0.09694,0.02286 0.198833,0.04052 0.297558,0.02732 0.05958,-0.008 0.201726,-0.128672 0.15734,-0.08813 -0.766772,0.700354 -1.551864,1.380386 -2.327796,2.070578 0.03406,-0.05673 0.08251,-0.107012 0.102185,-0.17019 0.04407,-0.141513 0.044,-0.490316 0.05017,-0.620773 0.0184,-0.389163 0.04199,-0.779011 0.103031,-1.164238 0.01508,-0.07464 0.104115,-0.605481 0.186036,-0.678793 0.778439,-0.696623 1.974625,-2.524027 3.400696,-2.258676 0.137116,0.02551 0.268694,0.0749 0.403041,0.112353 1.165156,0.483627 2.125122,1.218328 3.16545,1.918867 0.299425,0.203438 0.576339,0.398926 0.885937,0.584046 0.09715,0.05809 0.194663,0.116517 0.297766,0.163225 0.05171,0.02343 0.205421,0.0071 0.163994,0.04596 -2.309502,2.164001 -3.594226,2.105055 -2.397845,2.139892 -0.08783,-0.380597 -0.428566,-0.728112 -0.753166,-0.926058 -1.166394,0.121615 0.0117,0.01863 2.338852,-2.031293 0.04128,-0.03637 -0.117885,-0.0011 -0.16197,0.03177 -0.04812,0.03593 -0.07067,0.09927 -0.08977,0.156203 -0.06061,0.180683 -0.04513,0.353927 -0.04671,0.54112 0.03218,0.295241 0.05766,0.59598 0.119699,0.88703 0.01708,0.08014 0.12293,0.182181 0.06266,0.23769 -2.53388,2.33369 -1.809483,2.905035 -2.767348,2.072658 -0.386764,-0.441947 -0.683207,-0.959522 -1.115367,-1.363953 -0.160869,-0.158162 -0.230079,-0.244801 -0.419121,-0.362856 -0.06164,-0.03849 -0.12612,-0.07489 -0.195511,-0.09648 -0.03888,-0.0121 -0.152541,0.0247 -0.122118,-0.0024 2.216125,-1.97087 3.410024,-2.488855 2.278568,-1.98214 -0.03648,0.05483 -0.08661,0.102712 -0.109439,0.164481 -0.148742,0.402386 -0.02694,0.923355 -0.156777,1.339181 -2.284333,1.882093 -2.294175,3.148032 -3.45471,1.404748 -0.331491,-0.480825 -0.599324,-0.992757 -0.734466,-1.565693 2.109132,-1.659133 2.724513,-3.283277 2.711861,-1.821006 -0.0028,0.327986 -0.0072,0.658208 -0.0755,0.980586 -0.349436,1.70335 -0.850885,1.489712 -2.856853,3.191575 -0.05132,0.04354 -0.126182,0.05478 -0.193406,0.05791 -0.06675,0.0031 -0.131,-0.02649 -0.1965,-0.03973 -0.51781,-0.283193 -0.831452,-0.817852 -1.208536,-1.254517 -0.246237,-0.320224 -0.489775,-0.641832 -0.730486,-0.966202 -0.05692,-0.0767 -0.112052,-0.154805 -0.172034,-0.229127 -0.03246,-0.04022 -0.143735,-0.07991 -0.104983,-0.114118 0.830031,-0.732588 1.726643,-1.38609 2.589965,-2.079135 -0.03447,-0.0022 -0.08068,-0.03261 -0.1034,-0.0066 -0.05359,0.06133 -0.03704,0.425815 -0.03708,0.441641 -7.99e-4,0.314083 0.0032,0.628518 -0.01873,0.942113 -0.604771,0.533593 -2.137909,2.938075 -3.037282,2.156995 -0.232578,-0.201987 -0.373288,-0.502835 -0.561983,-0.739765 -0.347399,-0.510526 -0.69321,-1.081278 -1.220646,-1.422011 -1.158044,0.17536 -0.08491,0.03169 2.322325,-2.057679 0.04341,-0.03768 -0.112874,0.04553 -0.145137,0.0931 -0.157058,0.231574 -0.08784,0.5984 -0.126802,0.853019 -0.0038,0.07071 -0.04264,0.896447 -0.06806,0.920093 -1.224439,1.138794 -1.856772,2.896899 -3.033524,2.039611 -0.483234,-0.470911 -0.810519,-1.07657 -1.312475,-1.533148 -0.06459,-0.05681 -0.1241,-0.119998 -0.193785,-0.170437 -0.04274,-0.03094 -0.08864,-0.07831 -0.141015,-0.0719 -0.02946,0.0036 -0.0019,0.10619 0.02043,0.08667 3.889512,-3.395885 2.2503,-3.128869 2.383924,-1.837819 0.08602,0.385761 0.184521,0.767495 0.259604,1.155394 0.272434,1.407466 0.339289,0.04418 -2.630565,2.421043 -0.694823,-0.189812 -1.21158,-0.752743 -1.843359,-1.075329 -0.401078,-0.229568 -0.804995,-0.46488 -1.245271,-0.6139 -0.111693,-0.03781 -0.225789,-0.07281 -0.342815,-0.08728 -0.08354,-0.01033 -0.312838,0.07204 -0.252142,0.01372 0.747189,-0.717907 1.568396,-1.354571 2.352594,-2.031857 -0.0591,0.02032 -0.136129,0.01394 -0.177302,0.06096 -0.19388,0.221392 0.09569,1.253324 0.0968,1.557588 3.7e-4,0.0174 0.02363,0.571676 -0.0169,0.612337 -1.184697,1.188584 -1.800032,2.858526 -3.195904,2.191961 -0.660282,-0.382506 -1.247416,-0.871562 -1.857837,-1.326891 -0.165545,-0.107213 -0.33028,-0.232305 -0.521728,-0.293863 -0.05759,-0.01851 -0.224412,0.01788 -0.179981,-0.02316 0.780819,-0.721316 1.639788,-1.353863 2.434641,-2.059683 0.0421,-0.03738 -0.124773,0.0019 -0.16338,0.04283 -0.04959,0.05263 -0.04688,0.136814 -0.07032,0.20522 0.0092,0.790677 0.182413,1.574752 0.119777,2.368647 -0.01309,0.106222 0.03663,0.243216 -0.03927,0.318667 -0.862363,0.857188 -1.701187,2.712768 -2.840636,2.288392 -0.254448,-0.09477 -0.401674,-0.355636 -0.573047,-0.544878 -0.514999,-0.705291 -0.975219,-1.450547 -1.542543,-2.117191 -0.136642,-0.145839 -0.316012,-0.360636 -0.493134,-0.474421 -0.04101,-0.02635 -0.174589,-0.01283 -0.138829,-0.04596 0.788956,-0.730884 1.637561,-1.394641 2.452033,-2.09698 0.04087,-0.03524 -0.107399,0.04675 -0.130846,0.09536 -0.04088,0.08475 -0.03282,0.185307 -0.04923,0.27796 -0.01264,0.932117 0.07887,1.864157 0.03644,2.797211 -9.6e-5,0.09734 0.06987,0.224544 -2.9e-4,0.292014 -0.04127,0.03968 -1.747326,2.884399 -2.80552,2.16602 -0.203466,-0.138128 -0.321874,-0.370003 -0.495782,-0.537545 -0.213114,-0.232615 -0.792453,-0.860382 -1.104244,-0.92026 -0.02943,-0.0057 -0.05402,0.02596 -0.08103,0.03893 0.80525,-0.700803 1.610989,-1.401045 2.41575,-2.102408 0.04097,-0.03571 -0.102635,0.05561 -0.124365,0.105425 -0.03647,0.08361 -0.03504,0.179662 -0.03974,0.270762 -0.02342,0.454667 0.07233,0.905171 0.09936,1.357025 0.121872,1.334755 0.577838,5.335875 -2.69298,4.087751 -0.554603,-0.467671 -0.866233,-1.170777 -1.366932,-1.691219 -0.274715,-0.344557 -0.988466,-1.272595 -1.463083,-1.319877 -0.05197,-0.0052 -0.09912,0.03298 -0.148674,0.04947 0.769898,-0.678883 1.539795,-1.357767 2.309693,-2.03665 -0.05344,0.06676 -0.127795,0.121198 -0.160315,0.20029 -0.183009,0.445083 -0.06289,1.254591 -0.104146,1.732868 -0.0013,0.26735 -0.0049,0.534697 -0.004,0.802049 3.02e-4,0.09305 0.07162,0.215238 0.004,0.279119 -1.029212,0.971782 -2.059455,3.154374 -2.936152,1.950099 -0.320886,-0.54735 -0.612514,-1.128356 -1.100989,-1.549472 -0.06813,-0.04641 -0.13054,-0.102589 -0.204379,-0.139236 -0.04328,-0.02148 -0.09421,-0.02156 -0.141309,-0.03233 0.810751,-0.680003 1.621503,-1.360007 2.432254,-2.04001 0.04747,-0.04173 -0.131885,0.01867 -0.179968,0.05969 -0.154838,0.132092 -0.161808,0.350552 -0.199421,0.527876 -0.05197,0.566175 -0.05206,1.13419 -0.07433,1.702272 -0.0044,0.111884 0.0663,0.257181 -0.01359,0.335637 -0.830883,0.815987 -1.765577,1.519061 -2.648365,2.278591 -0.06743,-0.03365 -0.142514,-0.05505 -0.202296,-0.100937 -0.113734,-0.08729 -0.295207,-0.362364 -0.361073,-0.459402 -0.2619,-0.385847 -0.49795,-0.788117 -0.759145,-1.174432 -0.226011,-0.331879 -0.444773,-0.708724 -0.736374,-0.990566 -0.05196,-0.05022 -0.106684,-0.105091 -0.175428,-0.127371 -0.02184,-0.0071 -0.05274,0.07419 -0.03552,0.059 0.799989,-0.7056 1.590794,-1.421544 2.386191,-2.132316 -0.25439,0.542247 -0.06531,1.388652 -0.127228,1.98987 -0.0021,0.09856 -0.0044,0.197105 -0.0063,0.295665 -0.0015,0.08059 0.05487,0.186555 -0.0038,0.241787 -1.380546,1.298809 -2.126222,3.164649 -3.119131,1.809812 -0.545232,-0.853653 -0.962077,-1.780338 -1.413573,-2.684967 -0.422681,-0.805722 -0.818947,-1.64009 -1.404543,-2.343968 -0.917656,-0.775138 -0.03575,0.0092 2.503829,-2.158729 0.02476,-0.02114 -0.07579,-0.04086 -0.09639,-0.01566 -0.006,0.0073 0.02448,0.234331 0.0357,0.275928 0.01658,0.06146 0.04362,0.119612 0.06543,0.179418 0.04581,0.111389 0.134395,0.321358 0.126378,0.328618 -2.191403,1.984441 -2.152774,3.126924 -2.947519,1.691889 -0.151976,-0.25575 -0.307478,-0.507544 -0.512206,-0.725927 -0.04077,-0.04349 -0.07895,-0.0949 -0.13346,-0.119027 -0.01705,-0.0076 -0.0465,0.05784 -0.03245,0.04558 0.813948,-0.710581 1.622186,-1.427679 2.433278,-2.141518 -0.02942,0.04258 -0.07348,0.07815 -0.08828,0.127747 -0.129644,0.434433 0.152064,1.174701 0.128623,1.646992 0.233775,1.365926 0.144972,0.399012 -2.665374,2.359379 -0.04966,0.03464 -0.09511,-0.07642 -0.133257,-0.12344 -0.127499,-0.157185 -0.223558,-0.337538 -0.329791,-0.50981 -0.06835,-0.110838 -0.132997,-0.223917 -0.199495,-0.335875 -0.204518,-0.333447 -0.639464,-1.145326 -1.054024,-1.246425 -0.03006,-0.0073 -0.05671,0.02476 -0.08506,0.03714 0.79868,-0.691676 1.59736,-1.383351 2.39604,-2.075026 -0.04548,0.03951 -0.105735,0.0667 -0.136444,0.118537 -0.04035,0.06811 -0.05321,0.149736 -0.06852,0.227412 -0.06533,0.331557 -0.02722,0.670761 -0.04293,1.00547 -0.0034,0.215628 -0.01044,0.431208 -0.01162,0.646859 -4.68e-4,0.08558 0.06548,0.198034 0.0032,0.256716 -0.732017,0.689605 -2.207117,3.290526 -2.891105,1.921308 -0.272462,-0.730368 -0.465158,-1.487737 -0.759449,-2.210536 -0.03549,-0.08318 -0.147792,-0.363495 -0.21085,-0.456856 -0.02485,-0.03679 -0.05526,-0.07311 -0.09451,-0.09387 -0.01253,-0.0066 -0.04438,0.03526 -0.03352,0.02616 2.496754,-2.091617 3.379377,-2.595779 2.296601,-1.962595 -0.373991,0.555272 -0.447771,1.270726 -0.546682,1.918621 0.01723,1.417182 0.0825,0.461997 -2.751236,2.364873 -0.05519,0.03706 -0.111261,-0.07493 -0.156383,-0.123744 -0.22288,-0.241109 -0.342853,-0.56533 -0.528448,-0.831483 -0.215212,-0.321843 -0.710645,-1.14545 -1.024164,-1.343449 -0.02026,-0.0128 -0.04791,-0.0013 -0.07187,-0.002 0.818843,-0.702773 1.637685,-1.405546 2.456528,-2.10832 -0.03603,0.03251 -0.08743,0.05361 -0.10809,0.09752 -0.03657,0.07773 -0.04671,0.166143 -0.05612,0.251531 -0.04365,0.396243 0.02368,0.794507 0.03203,1.190267 0.0083,0.119945 0.104896,0.270053 0.02493,0.359835 -0.798456,0.896441 -2.042041,3.148209 -2.822902,2.236399 -0.06402,-0.07476 -0.190428,-0.289572 -0.23446,-0.361301 -0.317267,-0.557918 -0.716905,-1.068811 -1.136662,-1.552805 -0.05147,-0.05153 -0.200434,-0.228647 -0.302265,-0.246658 -0.0241,-0.0043 -0.07607,0.06156 -0.05758,0.04553 0.809547,-0.701462 1.620533,-1.401264 2.430799,-2.101897 -0.03652,0.03561 -0.08381,0.06279 -0.109576,0.106813 -0.03518,0.06011 -0.04566,0.131611 -0.06848,0.197417 -0.07595,0.572732 -0.03915,1.155051 -0.06836,1.731515 -0.90879,0.705124 -1.783037,1.457176 -2.726369,2.115374 -0.05101,0.03559 -0.108369,-0.06323 -0.15365,-0.105877 -0.344415,-0.324335 -0.505476,-0.814331 -0.786857,-1.185027 -0.260837,-0.423479 -0.724689,-1.287762 -1.132583,-1.565791 -0.0366,-0.02494 -0.08467,-0.02602 -0.127003,-0.03902 0.807528,-0.691286 1.61538,-1.382196 2.422585,-2.07386 0.04267,-0.03656 -0.09566,0.06331 -0.12898,0.108558 -0.0429,0.05826 -0.07021,0.127218 -0.09476,0.195276 -0.09804,0.271754 -0.09857,0.563023 -0.14906,0.84433 -0.0049,0.09544 0.05113,0.217077 -0.01474,0.286324 -0.829962,0.872601 -1.672278,2.856552 -2.757422,2.334317 -0.249472,-0.120061 -0.353987,-0.440643 -0.522741,-0.634267 -0.319219,-0.43121 -0.822207,-1.171096 -1.363129,-1.306893 -0.786713,0.857467 0.177424,-0.19895 2.296847,-1.99281 0.0546,-0.04621 -0.09336,0.10988 -0.126861,0.173081 -0.13207,0.249155 -0.164623,0.539312 -0.214889,0.81154 -0.293424,1.35325 -0.04986,0.458328 -2.652281,2.546576 -0.07811,0.06268 -0.350868,-0.130489 -0.390986,-0.164909 -0.151525,-0.130001 -0.297154,-0.331876 -0.417378,-0.483426 -0.317639,-0.435133 -0.7304,-1.120923 -1.150704,-1.443868 -0.0386,-0.02966 -0.08637,-0.04495 -0.129551,-0.06743 0.829404,-0.68513 1.68113,-1.344101 2.488212,-2.055391 0.03959,-0.03489 -0.117585,-0.03152 -0.15832,0.002 -0.19364,0.159527 -0.04396,0.958075 -0.06689,1.182522 0.0061,0.112627 0.01149,0.225289 0.01817,0.33788 0.0055,0.09186 0.08141,0.208558 0.01824,0.275476 -0.832705,0.882062 -2.007048,3.322891 -2.985595,2.015766 -0.264558,-0.405551 -0.458992,-0.863907 -0.79222,-1.220032 0.211726,1.122436 -0.01185,0.0289 2.454026,-2.080315 0.03812,-0.03261 -0.07019,0.07562 -0.08675,0.122978 -0.101077,0.289131 -0.02187,0.613152 -0.07202,0.909019 -0.0033,0.05488 -0.05642,0.911808 -0.06266,0.917348 -1.528073,1.355083 -1.856861,2.758653 -3.057847,1.972035 -0.168325,-0.129395 -0.334215,-0.273825 -0.513453,-0.388061 -0.04354,-0.02775 -0.0873,-0.05861 -0.137197,-0.07186 -0.02457,-0.0065 -0.09373,0.03237 -0.07465,0.01557 0.814587,-0.717624 1.645665,-1.416308 2.468498,-2.124463 -0.02804,0.02061 -0.06869,0.03064 -0.08411,0.06183 -0.14286,0.288996 0.148113,0.899318 0.124649,1.225469 -2.362171,2.236523 -2.043243,3.229339 -3.462797,1.534925 -0.229031,-0.275635 -0.455445,-0.553628 -0.692113,-0.822805 -0.06205,-0.07057 -0.122247,-0.143013 -0.188824,-0.20933 -0.04824,-0.04805 -0.205814,-0.08783 -0.154954,-0.133105 0.82579,-0.735075 1.738238,-1.366597 2.607356,-2.049895 -0.04677,-0.02834 -0.08949,-0.105196 -0.140323,-0.08502 -0.06502,0.0258 -0.002,0.260755 0.02933,0.424631 0.07094,0.371472 0.144999,0.742294 0.220891,1.112787 0.01675,0.109414 0.124584,0.246236 0.05024,0.32824 -0.810244,0.893719 -1.553631,2.651513 -2.728436,2.37754 -0.306188,-0.07141 -0.53481,-0.321969 -0.784668,-0.490984 -0.61267,-0.497549 -1.18964,-1.047481 -1.857567,-1.47124 -1.199894,-0.34642 -0.292977,-0.03952 2.32123,-2.234161 0.0324,-0.0272 -0.01756,0.08513 -0.0092,0.126593 0.06552,0.323401 0.272388,0.606481 0.371015,0.917885 0.02762,0.07624 0.338285,0.963771 0.313638,0.988744 -1.588781,1.609784 -1.752786,2.834887 -3.045299,2.068617 -0.519614,-0.37142 -1.013058,-0.818637 -1.612532,-1.053538 0.83977,-0.694564 1.701899,-1.362947 2.51931,-2.083691 0.03237,-0.02855 -0.0936,-0.05328 -0.126887,-0.02581 -0.0363,0.02996 -0.01575,0.09373 -0.01229,0.14068 0.01797,0.243945 0.134897,0.465932 0.191278,0.700665 8.49e-4,0.004 0.101636,0.451502 0.08433,0.46646 -2.155138,1.862536 -2.010201,2.765225 -3.352301,1.668786 -0.186995,-0.152605 -0.9349,-0.80068 -1.182587,-0.750398 -0.0295,0.006 -0.02633,0.05415 -0.03949,0.08123 0.797534,-0.722167 1.595069,-1.444333 2.392603,-2.1665 -0.02226,0.04016 -0.06142,0.07488 -0.06678,0.120483 -0.0088,0.07502 0.01066,0.151161 0.02619,0.22508 0.06856,0.326396 0.225345,0.623446 0.319722,0.941728 0.03946,0.09905 0.07981,0.197751 0.118388,0.297149 0.03294,0.08486 0.157423,0.188287 0.09614,0.255597 -1.313872,1.443132 -1.805572,3.13386 -2.969757,2.057096 -0.122073,-0.123588 -0.732763,-0.808887 -0.874134,-0.807406 -0.02632,2.75e-4 -0.0012,0.05262 -0.0019,0.07893 0.804973,-0.730142 1.594145,-1.478094 2.41492,-2.190427 0.03191,-0.02769 -0.02849,0.08049 -0.03226,0.122567 -0.02653,0.296379 0.04143,0.599243 0.01249,0.896279 -0.879253,0.742563 -1.737366,1.510908 -2.637761,2.22769 -0.04113,0.03274 -0.105221,7.76e-4 -0.157706,-0.0023 -0.06099,-0.0036 -0.194206,-0.02869 -0.259422,-0.0151 -0.02736,0.0057 -0.04889,0.0271 -0.07333,0.04064 0.825972,-0.702265 1.651944,-1.40453 2.477916,-2.106795 -0.03288,0.0063 -0.07264,-0.0021 -0.09865,0.019 -0.172705,0.14001 0.138092,0.787879 0.15419,0.972334 -2.253084,2.108452 -1.935209,3.127128 -3.469232,1.726805 -0.144171,-0.137548 -0.258027,-0.248789 -0.40625,-0.380378 -0.0447,-0.03968 -0.08485,-0.08646 -0.136948,-0.115772 -0.0145,-0.0082 -0.06109,0.02234 -0.04859,0.01137 2.385921,-2.094798 3.434403,-2.769884 2.444415,-2.12874 0.09785,0.498442 0.217128,0.990801 0.215552,1.503723 -1.328844,1.035258 -1.956882,2.873575 -3.030817,1.906861 -0.161489,-0.145366 -0.305475,-0.311472 -0.491923,-0.426995 -0.04727,-0.02727 -0.0886,-0.06969 -0.141816,-0.08182 -0.01571,-0.0036 -0.02552,0.05701 -0.01336,0.04645 0.825451,-0.716703 1.633615,-1.453157 2.459022,-2.169911 0.02782,-0.02416 -0.05941,0.05359 -0.06399,0.09015 -0.01264,0.100923 0.0729,0.430819 0.08938,0.5036 0.02392,0.110608 0.195423,1.05073 0.142438,1.098449 -2.497021,2.248862 -1.566369,2.381718 -2.854119,2.136113 -0.162504,-0.0592 -0.316059,-0.13634 -0.477073,-0.198082 -0.03858,-0.01479 -0.07765,-0.03089 -0.118674,-0.03578 -0.02771,-0.0033 -0.104063,0.02996 -0.0829,0.01177 0.827693,-0.711244 1.674823,-1.399549 2.512235,-2.099323 -0.03687,-0.0017 -0.08184,-0.02831 -0.110612,-0.0052 -0.108267,0.08697 0.207383,0.992886 0.212776,1.181264 0.01064,0.08802 0.09766,0.204547 0.03193,0.26405 -0.05097,0.04615 -1.750589,2.589029 -2.892962,2.09321 -0.253977,-0.110233 -0.450121,-0.320736 -0.656769,-0.496252 -0.224114,-0.211266 -0.45218,-0.417522 -0.678956,-0.625833 -0.0475,-0.04363 -0.186091,-0.08801 -0.140212,-0.133344 2.660385,-2.628804 2.860378,-3.241111 2.480195,-2.138844 0.13443,0.533112 0.389378,1.036524 0.434656,1.59196 -2.786187,2.332782 -1.876328,2.715151 -3.826689,1.697653 -0.07779,-0.03151 -0.152739,-0.0712 -0.233357,-0.09452 -0.04593,-0.01329 -0.177188,0.01884 -0.142722,-0.01429 0.790297,-0.759838 1.630188,-1.466349 2.445282,-2.199524 -0.01197,0.01694 -0.04114,0.03075 -0.03591,0.05082 0.01452,0.05564 0.207473,0.348367 0.22456,0.375151 0.03649,0.06261 0.07237,0.125584 0.109461,0.187838 0.04733,0.07943 0.210006,0.172643 0.143806,0.237189 -2.344749,2.286183 -1.77003,2.682474 -3.232013,1.857507 -0.544572,-0.332042 -1.087794,-0.666209 -1.638277,-0.98848 0,0 2.521495,-2.216202 2.521495,-2.216202 z"
       inkscape:connector-curvature="0"
       transform="matrix(1.2139864,0,0,1.2139864,-13.893749,-8.1741905)" />
  </g>
  <g
     inkscape:groupmode="layer"
     id="layer4"
     inkscape:label="Layer#1"
     style="display:inline">
    <path
       style="fill:#000000;fill-opacity:0.2962963;fill-rule:nonzero;stroke:none"
       id="path5644"
       d="m 32.092503,27.149528 c 0.534536,-0.24795 1.086401,-0.361001 1.668028,-0.441929 0.784423,-0.08299 1.575468,-0.08535 2.363369,-0.07318 1.066886,-0.02055 2.117301,-0.235831 3.164117,-0.42411 0.918258,-0.183036 1.844189,-0.248305 2.775674,-0.162093 1.101593,0.196035 2.186629,0.457712 3.296342,0.609756 1.15227,0.129064 2.312258,0.149854 3.468993,0.218799 1.205078,0.06012 2.366805,0.368366 3.526191,0.674551 0.652622,0.153176 1.258457,0.435877 1.848969,0.744696 0,0 -2.389939,2.173062 -2.389939,2.173062 l 0,0 c -0.570158,-0.288029 -1.148347,-0.563145 -1.769466,-0.725557 -1.140515,-0.311857 -2.297567,-0.570068 -3.483128,-0.626391 -1.164256,-0.07031 -2.334142,-0.08113 -3.491647,-0.234491 -1.106072,-0.170869 -2.19433,-0.439197 -3.306916,-0.567274 -0.908906,-0.04862 -1.809996,0.04504 -2.705681,0.20403 -1.064133,0.180132 -2.13086,0.379696 -3.213348,0.397944 -0.787265,0.0222 -1.578942,0.01885 -2.35914,0.140879 -0.572784,0.108152 -1.136592,0.263394 -1.630552,0.585432 0,0 2.238134,-2.494124 2.238134,-2.494124 z"
       inkscape:connector-curvature="0" />
    <path
       style="fill:#000000;fill-opacity:0.2962963;fill-rule:nonzero;stroke:none"
       id="path5648"
       d="m 66.742357,28.892127 c 0.634179,-0.250196 1.276218,-0.476162 1.920796,-0.698855 1.154984,-0.477691 2.364427,-0.813566 3.572058,-1.129929 1.289515,-0.327119 2.607898,-0.52874 3.927148,-0.690811 1.575991,-0.185232 3.150218,-0.368972 4.734226,-0.470699 1.501897,-0.09664 3.005907,-0.05415 4.508449,-0.0067 1.225463,0.05579 2.434618,0.270495 3.650107,0.420087 0.971728,0.106022 1.925804,0.284948 2.861934,0.565344 0.709085,0.20384 1.295954,0.607317 1.853852,1.073214 0,0 -2.46546,2.151045 -2.46546,2.151045 l 0,0 c -0.535217,-0.418844 -1.081215,-0.806751 -1.744098,-1.002012 -0.913713,-0.274539 -1.853447,-0.43119 -2.798688,-0.554088 -1.194607,-0.16598 -2.384897,-0.38407 -3.592322,-0.435693 -1.490768,-0.06551 -2.981472,-0.09275 -4.47162,0.01472 -1.585282,0.09938 -3.163474,0.269133 -4.735013,0.501551 -1.311427,0.182853 -2.623431,0.385747 -3.904812,0.726098 -1.221671,0.327209 -2.430217,0.700956 -3.596136,1.194899 -0.67493,0.249473 -1.34182,0.517689 -2.010156,0.783897 0,0 2.289735,-2.442032 2.289735,-2.442032 z"
       inkscape:connector-curvature="0" />
    <path
       style="fill:#000000;fill-opacity:0.2962963;fill-rule:nonzero;stroke:none"
       id="path5650"
       d="m 28.464187,34.039429 c -0.141794,-0.07726 -0.496973,-0.354905 -0.280009,-0.55509 1.284234,-1.184917 0.964616,-1.01203 1.898562,-1.375518 0.418331,-0.120138 0.99874,-0.294929 1.411014,-0.372991 2.119744,-0.401364 4.296889,-0.503199 6.445754,-0.614387 0.633731,-0.01396 1.267387,-0.05186 1.901194,-0.04188 2.438061,0.03839 4.9605,0.322754 7.329862,0.908285 0.468744,0.115838 0.928771,0.264463 1.393156,0.396695 1.603506,0.594502 0.840953,0.279363 2.292279,0.934159 0,0 -1.103458,1.011491 -1.103458,1.011491 l 0,0 c -1.411151,-0.673895 -0.666638,-0.351634 -2.23922,-0.953554 -0.454355,-0.13731 -0.903959,-0.291454 -1.363065,-0.41193 -2.984279,-0.783113 -6.096602,-1.008254 -9.170861,-0.872326 -2.684204,0.162346 -5.435242,0.304089 -7.992904,1.206453 -0.852389,0.408872 -0.42753,0.253177 0.598774,-0.719029 0.03569,-0.03381 -0.09755,0.03745 -0.125045,0.07821 -0.07973,0.118193 0.219301,0.23459 0.264715,0.273313 0,0 -1.260748,1.108101 -1.260748,1.108101 z"
       inkscape:connector-curvature="0" />
    <path
       style="fill:#000000;fill-opacity:0.2962963;fill-rule:nonzero;stroke:none"
       id="path5652"
       d="m 27.533914,34.990836 c 0.369864,0.01377 0.444647,0.02234 0.868264,0.0034 0.90871,-0.04058 1.456236,-0.09968 2.402252,-0.171316 0.763057,-0.05778 2.833936,-0.203538 3.546047,-0.254005 2.668504,-0.165648 5.340885,-0.346976 8.0164,-0.291483 1.611158,0.03342 1.897692,0.08285 3.463556,0.218044 1.333451,0.118891 2.636771,0.405486 3.934127,0.720202 0,0 -1.0812,1.02917 -1.0812,1.02917 l 0,0 c -1.270331,-0.331367 -2.547501,-0.63047 -3.857541,-0.762913 -1.537348,-0.148506 -1.835212,-0.203199 -3.419054,-0.245033 -2.674948,-0.07065 -5.347698,0.114628 -8.013953,0.304544 -1.264471,0.105433 -2.346539,0.190196 -3.602786,0.315108 -0.838776,0.0834 -1.674532,0.196588 -2.514056,0.272106 -0.261005,0.02348 -0.64412,0.03431 -0.923914,0.04401 0,0 1.181858,-1.181858 1.181858,-1.181858 z"
       inkscape:connector-curvature="0" />
    <path
       style="fill:#000000;fill-opacity:0.2962963;fill-rule:nonzero;stroke:none"
       id="path5654"
       d="m 68.063436,33.898241 c 0.392696,-0.32689 0.784322,-0.655069 1.178088,-0.98067 0.01687,-0.01395 -0.06877,0.04974 -0.04727,0.04561 0.05445,-0.01048 0.101818,-0.04393 0.152727,-0.0659 0.172348,-0.0093 0.344884,-0.01572 0.517045,-0.02805 0.305855,-0.0219 1.832949,-0.154706 1.993536,-0.168524 4.005938,-0.380865 8.026255,-0.546328 12.046689,-0.676236 2.921676,0.0096 5.896892,-0.114808 8.781368,0.45945 0.360612,0.07179 0.713542,0.177876 1.070313,0.266814 0,0 -1.09145,1.037274 -1.09145,1.037274 l 0,0 c -0.34551,-0.09371 -0.686992,-0.203786 -1.03653,-0.281132 -2.829206,-0.626056 -5.7624,-0.552317 -8.639768,-0.560443 -4.065589,0.129571 -8.131776,0.319615 -12.171882,0.816963 -0.692261,0.08155 -1.383132,0.175934 -2.076794,0.244556 -0.333863,0.03303 -0.640583,0.120658 -0.932654,-0.09624 -0.03359,-0.02495 0.0021,-0.08366 0.0031,-0.125494 0.453858,-0.382907 0.907715,-0.765814 1.361573,-1.14872 0,0 -1.108102,1.260747 -1.108102,1.260747 z"
       inkscape:connector-curvature="0" />
    <path
       style="fill:#000000;fill-opacity:0.2962963;fill-rule:nonzero;stroke:none"
       id="path5656"
       d="m 71.336704,36.27445 c 2.21528,-0.529752 4.479811,-0.825676 6.739764,-1.087525 2.882793,-0.258663 5.810481,-0.417268 8.700176,-0.142434 0.703397,0.0669 1.399688,0.194533 2.099532,0.291799 0,0 -0.95107,0.92498 -0.95107,0.92498 l 0,0 C 87.2311,36.16344 86.540597,36.036323 85.843089,35.967796 82.93951,35.682531 80.006179,35.862012 77.114,36.173422 c -2.324142,0.306429 -4.663652,0.63809 -6.915825,1.307937 0,0 1.138529,-1.206909 1.138529,-1.206909 z"
       inkscape:connector-curvature="0" />
  </g>
  <g
     inkscape:label="Layer 1"
     inkscape:groupmode="layer"
     id="layer1"
     transform="translate(0,-1002.3622)"
     style="display:inline"
     sodipodi:insensitive="true">
    <path
       style="fill:#00ff00;fill-opacity:1;fill-rule:nonzero;stroke:#000000;stroke-width:0.00606993;stroke-linecap:round;stroke-linejoin:round;stroke-miterlimit:4;stroke-opacity:1;stroke-dasharray:none;stroke-dashoffset:6.9"
       id="path5383"
       d="m 17.393757,1019.5447 c 0.03627,-0.4138 0.03755,-0.9353 -0.431115,-1.1122 -0.1234,-0.047 -0.259095,-0.05 -0.388643,-0.075 -0.754059,0.049 -1.410346,0.4133 -2.016215,0.8459 -0.308546,0.2203 -1.191681,0.9374 -0.885944,0.7132 2.03474,-1.492 2.43523,-2.1158 0.874057,-0.2896 -0.847363,1.0736 -1.572314,2.2411 -2.115328,3.498 -0.22214,0.5142 -0.496301,1.2434 -0.540691,1.8256 -0.01581,0.2073 0.03922,0.414 0.05883,0.6211 0.131692,0.1286 0.236123,0.293 0.395078,0.3858 0.821527,0.4798 1.984477,0.4475 2.889754,0.454 0.888301,0.01 1.776538,-0.024 2.664862,-0.025 0.449825,0.019 0.903072,0 1.349471,0.056 1.523516,0.1995 3.297169,0.8353 4.164432,2.2003 0.182172,0.2868 0.264071,0.626 0.396105,0.9391 0.02191,0.3423 0.09766,0.6854 0.06574,1.027 -0.104998,1.1233 -0.833114,2.4016 -1.65447,3.1535 -3.282115,3.0047 -2.627437,2.5228 -5.024302,3.9547 -0.44368,0.194 -0.876573,0.4149 -1.331039,0.5821 -1.480084,0.5446 -3.353839,0.9432 -4.924087,0.568 -0.263091,-0.063 -0.505666,-0.1922 -0.758499,-0.2884 -0.7803176,-0.6135 -0.7448616,-0.7008 -0.5508726,-1.6177 0,0 3.2465566,-2.1967 3.2465566,-2.1967 l 0,0 c -0.318076,0.5853 -0.415445,0.7117 0.130982,1.1944 0.214734,0.09 0.418945,0.2114 0.644204,0.2706 1.515551,0.3984 3.242201,-0.025 4.654092,-0.5912 0.445939,-0.1787 0.867663,-0.4128 1.301493,-0.6192 0.398861,-0.2592 1.477995,-1.1613 1.196581,-0.7778 -0.442515,0.6032 -1.062651,1.0736 -1.700425,1.4645 -0.3548,0.2175 0.582465,-0.5979 0.831073,-0.9316 0.685405,-0.9201 0.969838,-1.7159 0.897954,-2.8572 -0.10053,-0.2841 -0.151866,-0.5907 -0.301587,-0.8522 -0.761685,-1.3305 -2.448656,-1.8864 -3.873926,-2.0524 -0.44164,-0.052 -0.888648,-0.033 -1.332971,-0.049 -0.902482,0.01 -1.804629,0.047 -2.707161,0.049 -0.979414,0 -2.361834,0.031 -3.2275786,-0.5396 -0.226423,-0.1492 -0.370862,-0.3957 -0.556292,-0.5936 -0.02313,-0.2518 -0.08866,-0.5033 -0.06937,-0.7554 0.04744,-0.6201 0.363967,-1.4307 0.601343,-1.9768 0.557506,-1.2824 1.2748756,-2.4908 2.1192256,-3.6046 1.856644,-2.3154 0.818957,-1.1522 4.629224,-4.4147 0.752476,-0.6443 1.671886,-1.2964 2.671484,-1.4813 0.214821,-0.04 0.436824,-0.01 0.655234,-0.014 0.170312,0.053 0.350409,0.08 0.510932,0.158 0.534912,0.2583 0.726725,0.8062 0.738837,1.3589 0,0 -3.297037,2.3954 -3.297037,2.3954 z"
       inkscape:connector-curvature="0" />
    <path
       style="fill:#00ff00;fill-opacity:1;fill-rule:nonzero;stroke:#000000;stroke-width:0.00606993;stroke-linecap:round;stroke-linejoin:round;stroke-miterlimit:4;stroke-opacity:1;stroke-dasharray:none;stroke-dashoffset:6.9"
       id="path5389"
       d="m 28.121898,1020.7154 c 0.452002,1.5514 0.917395,3.0989 1.372421,4.6495 0.459934,1.3165 0.611658,2.8854 1.570032,3.9668 0.05467,0 0.10932,0.01 0.163985,0.01 0,0 -2.976255,2.7277 -2.976255,2.7277 l 0,0 c -0.08579,-0.062 -0.171582,-0.1247 -0.257373,-0.187 -0.832977,-1.2583 -1.010439,-2.8142 -1.472833,-4.2231 -0.452053,-1.5067 -0.918734,-3.0219 -1.584902,-4.4497 0,0 3.184925,-2.4933 3.184925,-2.4933 z"
       inkscape:connector-curvature="0" />
    <path
       style="fill:#00ff00;fill-opacity:1;fill-rule:nonzero;stroke:#000000;stroke-width:0.00606993;stroke-linecap:round;stroke-linejoin:round;stroke-miterlimit:4;stroke-opacity:1;stroke-dasharray:none;stroke-dashoffset:6.9"
       id="path5391"
       d="m 21.841837,1023.0011 c 1.313708,-0.3169 2.499948,-1.0233 3.677647,-1.6637 1.91792,-1.0875 3.828236,-2.1898 5.710214,-3.3386 0.541473,-0.3083 1.032014,-0.6886 1.513631,-1.0804 0,0 -2.604283,2.9706 -2.604283,2.9706 l 0,0 c -0.469269,0.3401 -0.948568,0.665 -1.456241,0.9465 -1.885451,1.0974 -3.77419,2.1893 -5.668609,3.2711 -1.280283,0.7023 -2.592013,1.5369 -4.054074,1.7762 0,0 2.881715,-2.8817 2.881715,-2.8817 z"
       inkscape:connector-curvature="0" />
    <path
       style="fill:#00ff00;fill-opacity:1;fill-rule:nonzero;stroke:#000000;stroke-width:0.00606993;stroke-linecap:round;stroke-linejoin:round;stroke-miterlimit:4;stroke-opacity:1;stroke-dasharray:none;stroke-dashoffset:6.9"
       id="path5393"
       d="m 34.240428,1019.6461 c -1.091477,1.0514 0.596259,-0.5832 2.539447,-2.075 0.154669,-0.1188 -0.261717,0.2902 -0.374925,0.449 -0.506057,0.7097 -0.785135,1.4889 -1.068785,2.3044 -0.427082,1.6734 -0.547518,3.532 0.143447,5.1614 0.114102,0.269 0.281189,0.5124 0.421785,0.7686 0.575895,0.7778 1.348417,1.3697 2.367665,1.1227 0.637041,-0.1544 0.755062,-0.3386 1.269898,-0.739 -0.774993,0.6018 -1.469804,1.3243 -2.324981,1.8054 -0.264836,0.1489 0.354094,-0.4975 0.486327,-0.7711 0.436212,-0.9025 0.543323,-1.9349 0.401536,-2.9201 -0.04861,-0.3378 -0.159009,-0.6637 -0.238515,-0.9956 -0.460102,-1.3531 -1.266614,-2.5655 -2.585844,-3.2021 -0.169599,-0.082 -0.353257,-0.1305 -0.529886,-0.1958 -0.401075,-0.089 -0.628017,-0.1234 -0.976522,0.084 0,0 2.773658,-2.9287 2.773658,-2.9287 l 0,0 c 0.379087,-0.014 0.728241,0.033 1.080983,0.1924 0.180793,0.089 0.368856,0.1647 0.542377,0.2672 1.332339,0.787 2.170984,2.067 2.673318,3.5051 0.0923,0.3494 0.213306,0.6923 0.276887,1.048 0.182668,1.0218 0.138781,2.1001 -0.235299,3.0762 -0.110898,0.2894 -0.204615,0.6082 -0.423336,0.8277 -1.090577,1.0947 -2.311315,2.0515 -3.466973,3.0772 -0.594791,0.3528 -0.762185,0.5435 -1.460893,0.613 -1.14068,0.1135 -1.983487,-0.6051 -2.589933,-1.4851 -0.147173,-0.281 -0.321468,-0.5493 -0.441516,-0.8429 -0.68786,-1.6821 -0.643348,-3.5922 -0.291098,-5.3399 0.08792,-0.3066 0.16268,-0.6174 0.263751,-0.9199 0.768511,-2.3005 2.283151,-3.5059 4.484491,-4.9146 0,0 -2.717064,3.0278 -2.717064,3.0278 z"
       inkscape:connector-curvature="0" />
    <path
       style="fill:#00ff00;fill-opacity:1;fill-rule:nonzero;stroke:#000000;stroke-width:0.00606993;stroke-linecap:round;stroke-linejoin:round;stroke-miterlimit:4;stroke-opacity:1;stroke-dasharray:none;stroke-dashoffset:6.9"
       id="path5397"
       d="m 46.8225,1017.0859 c -0.323979,1.4182 -0.518456,2.8594 -0.706458,4.3005 -0.262717,1.7596 -0.436139,3.5297 -0.511311,5.3069 -0.048,2.1689 0.362369,1.1829 -3.285384,3.2626 -0.101271,0.058 0.01117,-0.2329 0.01594,-0.3494 0.0066,-0.1613 0.01202,-0.3226 0.01805,-0.4838 0.05038,-1.4247 0.02758,-2.8505 0.06614,-4.2753 0.03075,-1.3839 0.338525,-2.7151 0.917165,-3.9677 0.355904,-0.631 0.688298,-1.3346 1.253559,-1.8139 3.32201,-2.8167 2.082692,-2.1959 3.855389,-3.0153 0.862708,-0.314 1.813743,-0.3245 2.635872,0.1277 0.159323,0.088 0.298596,0.2076 0.447893,0.3114 0.600889,0.6032 1.086228,1.3948 0.988622,2.2818 -0.01802,0.1638 -0.07205,0.3215 -0.108081,0.4823 -0.197323,0.5153 -0.535419,0.9333 -0.958719,1.2829 -2.332848,1.9269 -2.59885,2.3799 -4.505528,3.3686 -0.403344,0.2428 -0.845482,0.4114 -1.250549,0.6507 -0.230269,0.136 -0.180515,0.097 -0.305908,0.2681 1.000438,-0.8608 2.000875,-1.7217 3.001312,-2.5826 -0.01811,0.01 -0.05246,-10e-5 -0.05433,0.019 -0.01275,0.1303 0.314229,0.4555 0.372249,0.5298 0.513526,0.6574 -0.0322,-0.032 0.586812,0.7458 0.826111,0.9937 1.802097,1.8449 2.676682,2.7938 0.426766,0.5114 0.878744,1.0132 1.186982,1.6096 0.09525,0.1842 0.216154,0.5002 0.29456,0.697 0.03664,0.1025 0.07329,0.205 0.109938,0.3074 0,0 -3.164754,2.4568 -3.164754,2.4568 l 0,0 c -0.03007,-0.1002 -0.06014,-0.2004 -0.09021,-0.3007 -0.03144,-0.088 -0.207588,-0.5846 -0.243545,-0.6658 -0.260656,-0.5889 -0.677148,-1.0849 -1.076766,-1.5824 -0.856382,-0.9708 -1.822122,-1.8326 -2.69818,-2.7851 -0.453655,-0.4791 -1.0031,-0.9774 -1.305435,-1.5668 1.025562,-0.9159 2.042389,-1.8417 3.076688,-2.7477 0.08852,-0.077 0.21437,-0.097 0.320488,-0.1481 0.401589,-0.1926 0.803337,-0.3852 1.19385,-0.5998 1.61804,-0.8869 2.019329,-1.5164 -1.483024,1.558 -0.137859,0.121 0.296675,-0.2169 0.43344,-0.3391 0.126008,-0.1126 0.244451,-0.2344 0.353041,-0.3639 0.09798,-0.1169 0.176586,-0.2487 0.26488,-0.3731 0.05161,-0.1358 0.118011,-0.2668 0.154805,-0.4073 0.197937,-0.756 -0.189211,-1.4545 -0.71617,-1.9709 -0.129972,-0.083 -0.251463,-0.1811 -0.389915,-0.249 -0.777867,-0.3817 -1.642088,-0.2489 -2.39614,0.1117 -1.399465,0.8421 -0.490618,0.3268 2.157997,-1.9506 0.130431,-0.1121 -0.276598,0.2066 -0.398058,0.3284 -0.397823,0.399 -0.670864,0.9072 -0.957963,1.3846 -0.660061,1.2297 -0.988039,2.4605 -1.053525,3.8596 -0.05618,1.4008 -0.02621,2.8037 0.0073,4.205 0.0067,0.1507 0.01153,0.3016 0.01998,0.4523 0.0057,0.1019 0.09911,0.2381 0.02235,0.3053 -4.124359,3.6128 -3.288731,3.5737 -3.150236,1.402 0.163476,-1.8 0.350554,-3.5977 0.59196,-5.3893 0.153421,-1.3819 0.293094,-2.7655 0.481226,-4.143 0,0 3.305013,-2.339 3.305013,-2.339 z"
       inkscape:connector-curvature="0" />
    <path
       style="fill:#00ff00;fill-opacity:1;fill-rule:nonzero;stroke:#000000;stroke-width:0.00606993;stroke-linecap:round;stroke-linejoin:round;stroke-miterlimit:4;stroke-opacity:1;stroke-dasharray:none;stroke-dashoffset:6.9"
       id="path5399"
       d="m 61.051901,1020.2786 c -0.137371,1.1254 -0.32997,2.2434 -0.495307,3.3651 -0.240158,1.5555 -0.504935,3.1168 -0.454321,4.6952 0.05368,0.3489 0.05387,0.8503 0.355406,1.1113 0.241623,0.2091 0.660282,0.057 0.913056,0 0.144523,-0.059 0.289045,-0.1183 0.433567,-0.1774 0,0 -2.697187,2.8799 -2.697187,2.8799 l 0,0 c -0.166936,0.047 -0.333871,0.093 -0.500808,0.14 -0.160727,0.01 -0.321652,0.043 -0.482181,0.031 -0.895034,-0.072 -1.132279,-0.9216 -1.174012,-1.6812 -0.01889,-1.6088 0.259231,-3.1967 0.478998,-4.7864 0.126311,-1.0576 0.264793,-2.1157 0.325752,-3.179 0,0 3.297037,-2.3955 3.297037,-2.3955 z"
       inkscape:connector-curvature="0" />
    <path
       style="fill:#00ff00;fill-opacity:1;fill-rule:nonzero;stroke:#000000;stroke-width:0.00606993;stroke-linecap:round;stroke-linejoin:round;stroke-miterlimit:4;stroke-opacity:1;stroke-dasharray:none;stroke-dashoffset:6.9"
       id="path5401"
       d="m 67.203312,1023.0619 c -0.679635,1.2612 -1.492623,2.4398 -2.328643,3.6005 -1.701582,2.2459 -3.757213,4.1782 -5.83303,6.0693 -1.983651,1.7406 -1.734004,1.5378 -4.811362,4.0524 -0.908962,0.7427 -1.887459,1.3981 -2.96022,1.874 -0.714665,0.208 -1.150326,0.1761 -1.541503,-0.4842 0,0 3.163394,-2.5242 3.163394,-2.5242 l 0,0 c 0.12302,0.4533 0.722744,0.2327 1.023522,0.1258 0.662635,-0.3134 1.26954,-0.6789 1.866749,-1.1075 0.292091,-0.2096 1.120413,-0.8984 0.861009,-0.6495 -0.211466,0.2029 -3.535369,3.0257 -0.66801,0.5717 2.042405,-1.8415 4.062411,-3.7278 5.738797,-5.9191 0.769778,-1.0794 1.522924,-2.1782 2.097087,-3.3772 0,0 3.39221,-2.232 3.39221,-2.232 z"
       inkscape:connector-curvature="0" />
    <path
       style="fill:#ff7900;fill-opacity:1;fill-rule:nonzero;stroke:#000000;stroke-width:0.00606993;stroke-linecap:round;stroke-linejoin:round;stroke-miterlimit:4;stroke-opacity:1;stroke-dasharray:none;stroke-dashoffset:6.9"
       id="path5433"
       d="m 71.872204,1015.3856 c 0.02889,0.1713 0.04968,0.3439 0.08645,0.5136 0.230843,1.0669 0.537826,2.1229 0.824527,3.175 0.610613,2.2408 0.253028,0.95 0.913161,3.2994 0.783865,2.8503 1.610284,5.6884 2.508349,8.5048 0,0 -3.200455,2.0469 -3.200455,2.0469 l 0,0 c -0.565922,-2.9277 -1.437481,-5.7894 -2.24339,-8.6574 -0.711803,-2.2559 -1.434087,-4.5095 -2.293746,-6.7143 0,0 3.405104,-2.168 3.405104,-2.168 z"
       inkscape:connector-curvature="0" />
    <path
       style="fill:#ff7900;fill-opacity:1;fill-rule:nonzero;stroke:#000000;stroke-width:0.00606993;stroke-linecap:round;stroke-linejoin:round;stroke-miterlimit:4;stroke-opacity:1;stroke-dasharray:none;stroke-dashoffset:6.9"
       id="path5437"
       d="m 59.792562,1021.1536 c 0.390135,-0.3689 0.401693,-0.4026 0.902409,-0.7515 1.287416,-0.8975 2.570175,-1.8026 3.879676,-2.6675 0.312554,-0.2063 0.651318,-0.3703 0.982974,-0.5445 1.105893,-0.5804 1.411183,-0.6969 2.585484,-1.229 2.883747,-1.2738 5.813729,-2.4428 8.769945,-3.5372 1.127208,-0.452 2.28718,-0.855 3.355933,-1.4407 0.152955,-0.085 0.297769,-0.1818 0.446669,-0.2726 -0.971257,0.661 -1.942521,1.3221 -2.913788,1.9832 0.06754,-0.051 0.134829,-0.1023 0.202388,-0.1522 0,0 3.617625,-1.7584 3.617625,-1.7584 l 0,0 c -0.07779,0.061 -0.155805,0.1213 -0.233761,0.1813 -1.183554,0.8131 -2.356592,1.642 -3.550615,2.4398 -0.172554,0.114 -0.846267,0.4084 -0.994302,0.4711 -0.867019,0.3664 -1.754355,0.6823 -2.639224,1.0025 -2.941609,1.0512 -5.85092,2.1995 -8.689209,3.5061 -1.142252,0.548 -1.586629,0.735 -2.662936,1.3459 -0.349136,0.1976 -1.348694,0.8672 -1.029605,0.6237 4.257254,-3.246 2.565142,-1.7539 1.570963,-1.0417 0,0 -3.600729,1.8413 -3.600729,1.8413 z"
       inkscape:connector-curvature="0" />
    <path
       style="fill:#ff7900;fill-opacity:1;fill-rule:nonzero;stroke:#000000;stroke-width:0.00606993;stroke-linecap:round;stroke-linejoin:round;stroke-miterlimit:4;stroke-opacity:1;stroke-dasharray:none;stroke-dashoffset:6.9"
       id="path5439"
       d="m 80.204768,1019.1472 c 0.508681,1.375 0.718051,2.8291 0.932124,4.2717 0.210264,1.6083 0.323371,3.227 0.644948,4.818 0.07055,0.2745 0.123504,0.5475 0.328573,0.7508 0,0 -3.325672,2.3106 -3.325672,2.3106 l 0,0 c -0.180529,-0.3031 -0.292981,-0.6157 -0.332405,-0.9713 -0.213925,-1.6321 -0.282953,-3.2771 -0.505922,-4.9085 -0.230482,-1.3632 -0.446412,-2.767 -1.104102,-4.0025 0,0 3.362449,-2.2688 3.362449,-2.2688 z"
       inkscape:connector-curvature="0" />
    <path
       style="fill:#ff7900;fill-opacity:1;fill-rule:nonzero;stroke:#000000;stroke-width:0.00606993;stroke-linecap:round;stroke-linejoin:round;stroke-miterlimit:4;stroke-opacity:1;stroke-dasharray:none;stroke-dashoffset:6.9"
       id="path5441"
       d="m 77.758575,1019.4861 c 1.302308,-0.3704 2.651257,-0.5607 3.992459,-0.7292 1.210773,-0.149 2.431271,-0.1383 3.648021,-0.1774 0,0 -3.020411,2.5473 -3.020411,2.5473 l 0,0 c -1.169166,-0.054 -2.341595,-0.019 -3.503733,0.1268 -1.385337,0.2012 -2.806329,0.4051 -4.096051,0.9749 0,0 2.979755,-2.7412 2.979755,-2.7412 z"
       inkscape:connector-curvature="0" />
    <path
       style="fill:#ff7900;fill-opacity:1;fill-rule:nonzero;stroke:#000000;stroke-width:0.00606993;stroke-linecap:round;stroke-linejoin:round;stroke-miterlimit:4;stroke-opacity:1;stroke-dasharray:none;stroke-dashoffset:6.9"
       id="path5443"
       d="m 78.494673,1029.276 c 1.119945,-0.5439 2.288775,-0.9516 3.496561,-1.2465 1.324811,-0.3073 2.670937,-0.3261 4.017514,-0.2111 0,0 -3.043037,2.5202 -3.043037,2.5202 l 0,0 c -1.289646,-0.1381 -2.579181,-0.084 -3.841802,0.241 -1.251812,0.356 -2.457086,0.8288 -3.60894,1.4379 0,0 2.979704,-2.7415 2.979704,-2.7415 z"
       inkscape:connector-curvature="0" />
    <path
       style="fill:#ff7900;fill-opacity:1;fill-rule:nonzero;stroke:#000000;stroke-width:0.00606993;stroke-linecap:round;stroke-linejoin:round;stroke-miterlimit:4;stroke-opacity:1;stroke-dasharray:none;stroke-dashoffset:6.9"
       id="path5445"
       d="m 84.596847,1029.4348 c 0.199536,-1.1964 0.239964,-2.4134 0.325388,-3.6216 0.09644,-1.5557 0.207881,-3.1098 0.528353,-4.6376 0.511695,-1.757 1.14179,-1.5328 3.679372,-3.006 0.215303,-0.1256 0.60593,0.8429 0.646812,0.9435 0.316234,1.7036 0.33745,3.5303 1.046813,5.1361 0.05497,0.031 0.114289,0.1291 0.164609,0.092 0.07098,-0.053 0.136217,-0.3024 0.05932,-0.2587 -1.044859,0.5937 -1.964719,1.3987 -3.033408,1.948 -0.181111,0.093 0.20181,-0.3547 0.291173,-0.5378 0.200396,-0.4109 0.455223,-1.0459 0.627099,-1.4611 0.525344,-1.1526 0.918691,-2.4496 1.83857,-3.3625 1.202144,-0.7302 2.340203,-1.5782 3.606477,-2.1904 0.13144,-0.062 0.427929,0.4179 0.546887,0.7565 0.26354,0.7509 0.296,1.5862 0.365344,2.3687 0.104095,2.0212 -0.03516,4.043 -0.03462,6.0649 0.03895,0.7692 -0.0014,0.4181 0.100816,1.0551 0,0 -3.360737,2.0852 -3.360737,2.0852 l 0,0 c -0.05085,-0.7179 -0.03761,-0.3302 -0.02592,-1.1635 0.09986,-2.0113 0.257165,-4.0297 0.09231,-6.042 -0.08947,-0.7261 -0.09021,-0.9391 -0.263846,-1.6214 -0.0492,-0.1933 -0.168968,-0.6387 -0.331184,-0.8268 -0.035,-0.042 -0.188013,-0.032 -0.145667,-0.064 0.988506,-0.7568 2.032385,-1.4382 3.048582,-2.1572 -0.110204,0.055 -0.233253,0.096 -0.330232,0.1721 -0.826737,0.6578 -1.325788,2.1418 -1.756882,3.0691 -0.183011,0.4797 -0.372893,0.9566 -0.551756,1.4375 -0.06935,0.1864 -0.04889,0.4324 -0.199344,0.5627 -1.098439,0.951 -2.266503,1.8257 -3.48073,2.6235 -0.09934,0.066 -0.242895,-0.044 -0.338818,-0.1136 -0.09118,-0.067 -0.128702,-0.1866 -0.193064,-0.2801 -0.458011,-1.6741 -0.49372,-3.4435 -1.057927,-5.092 -0.05148,-0.1057 -0.09474,-0.2195 -0.154841,-0.3225 -0.03036,-0.051 -0.06124,-0.1123 -0.114697,-0.1393 -0.02363,-0.015 -0.08641,0.063 -0.0646,0.048 1.040352,-0.7448 2.080396,-1.49 3.120635,-2.235 -0.06776,0.063 -0.1516,0.1124 -0.203423,0.1889 -0.07778,0.1141 -0.118975,0.2502 -0.178436,0.3754 -0.468003,1.4995 -0.606697,3.0674 -0.66829,4.6314 -0.05305,1.1663 -0.07413,2.3328 -0.09358,3.4998 0,0 -3.506395,2.077 -3.506395,2.077 z"
       inkscape:connector-curvature="0" />
    <path
       style="fill:#ff7900;fill-opacity:1;fill-rule:nonzero;stroke:#000000;stroke-width:0.00606993;stroke-linecap:round;stroke-linejoin:round;stroke-miterlimit:4;stroke-opacity:1;stroke-dasharray:none;stroke-dashoffset:6.9"
       id="path5447"
       d="m 102.50216,1024.1915 c -0.85816,-0.2335 -1.70775,-0.4914 -2.546933,-0.7868 -0.50242,-0.1931 -1.00427,-0.3883 -1.515058,-0.5586 -0.159284,-0.054 -0.521651,-0.1818 -0.711944,-0.18 -0.07619,0.018 -0.147286,0.043 -0.220849,0.063 -0.743099,1.3146 0.0097,-0.088 2.976614,-1.8876 0.10275,-0.063 -0.11953,0.209 -0.16529,0.3202 -0.23126,0.5612 -0.353223,1.1815 -0.508134,1.7654 -0.462567,1.6834 -0.905706,3.3715 -1.157599,5.1002 -0.06618,0.7695 -0.192105,1.787 0.570475,2.27 0.115612,0.073 0.246849,0.1183 0.370246,0.1779 0.910912,0.3266 1.886182,0.3446 2.833302,0.4873 0.39578,0.025 0.73705,0.152 1.08772,0.3233 0,0 -3.15778,2.4503 -3.15778,2.4503 l 0,0 c -0.32397,-0.1244 -0.649647,-0.2222 -0.996856,-0.2614 -0.98016,-0.1455 -1.987631,-0.2071 -2.912065,-0.5965 -0.145681,-0.084 -0.302275,-0.1503 -0.436605,-0.2511 -0.843115,-0.6323 -0.786341,-1.7206 -0.676895,-2.6595 0.27378,-1.7278 0.722671,-3.4175 1.123923,-5.1188 0.496168,-2.3075 0.544938,-4.2295 4.121848,-4.7305 0.85795,0.139 1.61993,0.6155 2.44744,0.8631 0.86843,0.2774 1.74868,0.5214 2.64886,0.6727 0,0 -3.17353,2.5418 -3.17353,2.5418 z"
       inkscape:connector-curvature="0" />
    <path
       style="fill:#ff7900;fill-opacity:1;fill-rule:nonzero;stroke:#000000;stroke-width:0.00606993;stroke-linecap:round;stroke-linejoin:round;stroke-miterlimit:4;stroke-opacity:1;stroke-dasharray:none;stroke-dashoffset:6.9"
       id="path5449"
       d="m 99.80607,1025.8625 c 1.05632,0.1297 2.10124,0.3242 3.13438,0.5787 0,0 -3.027089,2.4392 -3.027089,2.4392 l 0,0 c -1.061017,-0.2343 -2.136757,-0.4113 -3.225654,-0.4345 0,0 3.118363,-2.5834 3.118363,-2.5834 z"
       inkscape:connector-curvature="0" />
  </g>
</svg>
