<?xml version="1.0" encoding="UTF-8" standalone="no"?>
<!-- Created with Inkscape (http://www.inkscape.org/) -->

<svg
   xmlns:dc="http://purl.org/dc/elements/1.1/"
   xmlns:cc="http://creativecommons.org/ns#"
   xmlns:rdf="http://www.w3.org/1999/02/22-rdf-syntax-ns#"
   xmlns:svg="http://www.w3.org/2000/svg"
   xmlns="http://www.w3.org/2000/svg"
   xmlns:sodipodi="http://sodipodi.sourceforge.net/DTD/sodipodi-0.dtd"
   xmlns:inkscape="http://www.inkscape.org/namespaces/inkscape"
   width="500"
   height="500"
   id="svg2"
   version="1.1"
   inkscape:version="0.48.4 r9939"
   sodipodi:docname="New document 1">
  <defs
     id="defs4" />
  <sodipodi:namedview
     id="base"
     pagecolor="#ffffff"
     bordercolor="#666666"
     borderopacity="1.0"
     inkscape:pageopacity="0.0"
     inkscape:pageshadow="2"
     inkscape:zoom="1.038"
     inkscape:cx="250"
     inkscape:cy="250"
     inkscape:document-units="px"
     inkscape:current-layer="layer1"
     showgrid="false"
     inkscape:snap-page="false"
     inkscape:window-width="1366"
     inkscape:window-height="706"
     inkscape:window-x="-8"
     inkscape:window-y="-8"
     inkscape:window-maximized="1" />
  <metadata
     id="metadata7">
    <rdf:RDF>
      <cc:Work
         rdf:about="">
        <dc:format>image/svg+xml</dc:format>
        <dc:type
           rdf:resource="http://purl.org/dc/dcmitype/StillImage" />
        <dc:title></dc:title>
      </cc:Work>
    </rdf:RDF>
  </metadata>
  <g
     inkscape:label="Layer 1"
     inkscape:groupmode="layer"
     id="layer1"
     transform="translate(0,-552.36218)">
    <path
       style="fill:#000000;stroke:#000000;stroke-width:0.45153564px;stroke-linecap:butt;stroke-linejoin:miter;stroke-opacity:1"
       d="m 44.678767,981.56585 c -7.368532,2.90298 -9.952524,10.452 -10.29846,17.4677 -0.477895,9.69175 -2.637883,20.25055 4.457344,28.08175 9.894038,10.9204 30.350942,3.8942 40.943669,-10.1145 1.185212,-1.5676 7.811815,-5.1983 6.203654,-7.3337 -4.403945,-5.8479 -14.249295,-9.3617 -19.510249,-14.44365 -4.918225,-4.75094 -17.290855,-8.68518 -21.795958,-13.6576 z"
       id="path2987"
       inkscape:connector-curvature="0"
       sodipodi:nodetypes="csssssc" />
    <path
       style="fill:#000000;stroke:#000000;stroke-width:0.51722521px;stroke-linecap:butt;stroke-linejoin:miter;stroke-opacity:1"
       d="m 52.250528,967.62388 c 0.07699,3.90732 5.201861,5.89621 8.29257,8.28797 8.214235,6.35662 18.662205,9.41986 26.852099,15.8078 4.700184,3.666 3.59318,5.66535 6.873057,4.26535 3.249443,-1.387 3.678888,-6.25754 5.433359,-9.43424 2.701057,-4.89063 2.157597,-9.44838 7.838947,-14.81474 10.63999,-10.0501 49.76057,-42.55437 51.18555,-84.8124 0.531,-15.74684 -15.82908,-21.67533 -27.68298,-22.43979 -12.78117,-0.82426 -23.65323,11.10378 -32.709044,20.16082 -8.045538,8.04663 -14.759494,20.33792 -17.907722,29.06241 -5.305123,13.13064 -10.27832,22.95408 -13.915053,28.23372 -6.493602,9.09663 -14.428525,17.17077 -14.260783,25.6831 z"
       id="path2989"
       inkscape:connector-curvature="0"
       sodipodi:nodetypes="cascassaaccc" />
    <path
       style="fill:none;stroke:#ffffff;stroke-width:5;stroke-linecap:butt;stroke-linejoin:miter;stroke-miterlimit:4;stroke-opacity:1;stroke-dasharray:none"
       d="m 415.20242,579.41031 c 12.94029,22.34972 68.68238,32.99483 83.91396,48.22641"
       id="path3054-3"
       inkscape:connector-curvature="0" />
    <path
       style="fill:none;stroke:#ffffff;stroke-width:5;stroke-linecap:butt;stroke-linejoin:miter;stroke-miterlimit:4;stroke-opacity:1;stroke-dasharray:none"
       d="m 425.32996,564.94238 c 12.94029,22.34972 68.68238,32.99483 83.91396,48.22641"
       id="path3054-51-8"
       inkscape:connector-curvature="0" />
    <path
       style="fill:#000000;stroke:#000000;stroke-width:0.45153564px;stroke-linecap:butt;stroke-linejoin:miter;stroke-opacity:1"
       d="m 217.23015,924.60588 c -7.36853,2.90298 -9.95252,10.452 -10.29846,17.4677 -0.4779,9.69175 -2.63788,20.25055 4.45734,28.08175 9.89404,10.9204 30.35095,3.8942 40.94367,-10.1145 1.18522,-1.5676 7.81182,-5.1983 6.20366,-7.3337 -4.40395,-5.8479 -14.2493,-9.3617 -19.51025,-14.44365 -4.91823,-4.75094 -17.29086,-8.68518 -21.79596,-13.6576 z"
       id="path2987-6"
       inkscape:connector-curvature="0"
       sodipodi:nodetypes="csssssc" />
    <path
       style="fill:#000000;stroke:#000000;stroke-width:0.51722521px;stroke-linecap:butt;stroke-linejoin:miter;stroke-opacity:1"
       d="m 224.80191,910.66391 c 0.077,3.90732 5.20186,5.89621 8.29257,8.28797 8.21424,6.35662 18.66221,9.41986 26.8521,15.8078 4.70018,3.666 3.59318,5.66535 6.87306,4.26535 3.24944,-1.387 3.67889,-6.25754 5.43336,-9.43424 2.70105,-4.89063 2.15759,-9.44838 7.83894,-14.81474 10.63999,-10.0501 49.76057,-42.55437 51.18555,-84.8124 0.531,-15.74684 -15.82908,-21.67533 -27.68298,-22.43979 -12.78117,-0.82426 -23.65323,11.10378 -32.70904,20.16082 -8.04554,8.04663 -14.75949,20.33792 -17.90772,29.06241 -5.30513,13.13064 -10.27832,22.95408 -13.91506,28.23372 -6.4936,9.09663 -14.42852,17.17077 -14.26078,25.6831 z"
       id="path2989-1"
       inkscape:connector-curvature="0"
       sodipodi:nodetypes="cascassaaccc" />
    <path
       style="fill:#000000;stroke:#000000;stroke-width:0.45153564px;stroke-linecap:butt;stroke-linejoin:miter;stroke-opacity:1"
       d="m 187.36502,739.63479 c -7.36853,2.90298 -9.95252,10.452 -10.29846,17.4677 -0.4779,9.69175 -2.63788,20.25055 4.45734,28.08175 9.89404,10.9204 30.35095,3.8942 40.94367,-10.1145 1.18522,-1.5676 7.81182,-5.1983 6.20366,-7.3337 -4.40395,-5.8479 -14.2493,-9.3617 -19.51025,-14.44365 -4.91823,-4.75094 -17.29086,-8.68518 -21.79596,-13.6576 z"
       id="path2987-6-8"
       inkscape:connector-curvature="0"
       sodipodi:nodetypes="csssssc" />
    <path
       style="fill:#000000;stroke:#000000;stroke-width:0.51722521px;stroke-linecap:butt;stroke-linejoin:miter;stroke-opacity:1"
       d="m 194.93678,725.69282 c 0.077,3.90732 5.20186,5.89621 8.29257,8.28797 8.21424,6.35662 18.66221,9.41986 26.8521,15.8078 4.70018,3.666 3.59318,5.66535 6.87306,4.26535 3.24944,-1.387 3.67889,-6.25754 5.43336,-9.43424 2.70105,-4.89063 2.15759,-9.44838 7.83894,-14.81474 10.63999,-10.0501 49.76057,-42.55437 51.18555,-84.8124 0.531,-15.74684 -15.82908,-21.67533 -27.68298,-22.43979 -12.78117,-0.82426 -23.65323,11.10378 -32.70904,20.16082 -8.04554,8.04663 -14.75949,20.33792 -17.90772,29.06241 -5.30513,13.13064 -10.27832,22.95408 -13.91506,28.23372 -6.4936,9.09663 -14.42852,17.17077 -14.26078,25.6831 z"
       id="path2989-1-9"
       inkscape:connector-curvature="0"
       sodipodi:nodetypes="cascassaaccc" />
    <path
       style="fill:#000000;stroke:#000000;stroke-width:0.45153564px;stroke-linecap:butt;stroke-linejoin:miter;stroke-opacity:1"
       d="m 357.88525,705.9161 c -7.36853,2.90298 -9.95252,10.452 -10.29846,17.4677 -0.4779,9.69175 -2.63788,20.25055 4.45734,28.08175 9.89404,10.9204 30.35095,3.8942 40.94367,-10.1145 1.18522,-1.5676 7.81182,-5.1983 6.20366,-7.3337 -4.40395,-5.8479 -14.2493,-9.3617 -19.51025,-14.44365 -4.91823,-4.75094 -17.29086,-8.68518 -21.79596,-13.6576 z"
       id="path2987-6-2"
       inkscape:connector-curvature="0"
       sodipodi:nodetypes="csssssc" />
    <path
       style="fill:#000000;stroke:#000000;stroke-width:0.51722521px;stroke-linecap:butt;stroke-linejoin:miter;stroke-opacity:1"
       d="m 365.45701,691.97413 c 0.077,3.90732 5.20186,5.89621 8.29257,8.28797 8.21424,6.35662 18.66221,9.41986 26.8521,15.8078 4.70018,3.666 3.59318,5.66535 6.87306,4.26535 3.24944,-1.387 3.67889,-6.25754 5.43336,-9.43424 2.70105,-4.89063 2.15759,-9.44838 7.83894,-14.81474 10.63999,-10.0501 49.76057,-42.55437 51.18555,-84.8124 0.531,-15.74684 -15.82908,-21.67533 -27.68298,-22.43979 -12.78117,-0.82426 -23.65323,11.10378 -32.70904,20.16082 -8.04554,8.04663 -14.75949,20.33792 -17.90772,29.06241 -5.30513,13.13064 -10.27832,22.95408 -13.91506,28.23372 -6.4936,9.09663 -14.42852,17.17077 -14.26078,25.6831 z"
       id="path2989-1-7"
       inkscape:connector-curvature="0"
       sodipodi:nodetypes="cascassaaccc" />
  </g>
</svg>
