<?xml version="1.0" encoding="UTF-8" standalone="no"?>
<!-- Created with Inkscape (http://www.inkscape.org/) -->

<svg
   xmlns:dc="http://purl.org/dc/elements/1.1/"
   xmlns:cc="http://creativecommons.org/ns#"
   xmlns:rdf="http://www.w3.org/1999/02/22-rdf-syntax-ns#"
   xmlns:svg="http://www.w3.org/2000/svg"
   xmlns="http://www.w3.org/2000/svg"
   xmlns:sodipodi="http://sodipodi.sourceforge.net/DTD/sodipodi-0.dtd"
   xmlns:inkscape="http://www.inkscape.org/namespaces/inkscape"
   width="500"
   height="500"
   id="svg2"
   version="1.1"
   inkscape:version="0.48.4 r9939"
   sodipodi:docname="18.svg">
  <defs
     id="defs4" />
  <sodipodi:namedview
     id="base"
     pagecolor="#ffffff"
     bordercolor="#666666"
     borderopacity="1.0"
     inkscape:pageopacity="0.0"
     inkscape:pageshadow="2"
     inkscape:zoom="0.46565566"
     inkscape:cx="235.95182"
     inkscape:cy="236.04364"
     inkscape:document-units="px"
     inkscape:current-layer="layer1"
     showgrid="false"
     inkscape:snap-page="false"
     inkscape:window-width="793"
     inkscape:window-height="690"
     inkscape:window-x="0"
     inkscape:window-y="0"
     inkscape:window-maximized="0" />
  <metadata
     id="metadata7">
    <rdf:RDF>
      <cc:Work
         rdf:about="">
        <dc:format>image/svg+xml</dc:format>
        <dc:type
           rdf:resource="http://purl.org/dc/dcmitype/StillImage" />
        <dc:title></dc:title>
      </cc:Work>
    </rdf:RDF>
  </metadata>
  <g
     inkscape:label="Layer 1"
     inkscape:groupmode="layer"
     id="layer1"
     transform="translate(0,-552.36218)">
    <path
       style="fill:none;stroke:#ffffff;stroke-width:5;stroke-linecap:butt;stroke-linejoin:miter;stroke-miterlimit:4;stroke-opacity:1;stroke-dasharray:none"
       d="m 415.20242,579.41031 c 12.94029,22.34972 68.68238,32.99483 83.91396,48.22641"
       id="path3054-3"
       inkscape:connector-curvature="0" />
    <path
       style="fill:none;stroke:#ffffff;stroke-width:5;stroke-linecap:butt;stroke-linejoin:miter;stroke-miterlimit:4;stroke-opacity:1;stroke-dasharray:none"
       d="m 425.32996,564.94238 c 12.94029,22.34972 68.68238,32.99483 83.91396,48.22641"
       id="path3054-51-8"
       inkscape:connector-curvature="0" />
    <path
       style="fill:#000000;fill-opacity:1;stroke:#000000;stroke-width:0.78973567px;stroke-linecap:butt;stroke-linejoin:miter;stroke-opacity:1"
       d="m 250.02703,989.81854 c -10.53317,12.83306 -60.66399,32.87296 -84.02383,-3.44029 -17.00666,-26.43724 -20.06539,-57.05766 -20.06539,-87.15446 0,-73.75829 23.35157,-32.46524 77.75341,-57.33845 10.43006,-4.76877 76.10418,-17.82467 94.05652,-6.88062 33.83473,20.62622 6.10942,34.25583 35.11445,60.77877 44.72754,40.90001 -64.15166,107.30001 -102.83516,94.03505 z"
       id="path4101"
       inkscape:connector-curvature="0"
       sodipodi:nodetypes="csssssc" />
    <path
       style="fill:#000000;fill-opacity:1;stroke:#000000;stroke-width:0.75395584px;stroke-linecap:butt;stroke-linejoin:miter;stroke-opacity:1"
       d="m 360.4731,863.43448 c 24.37181,52.58274 24.94658,-5.60413 36.5711,-17.95301 12.06516,-12.81693 24.92455,-26.59468 38.67598,-41.20296 24.59053,-26.12281 3.07077,-56.86753 -25.09146,-34.42605 -31.10379,24.78549 -21.55354,68.98306 -50.15562,93.58202 z"
       id="path4103"
       inkscape:connector-curvature="0"
       sodipodi:nodetypes="csssc" />
    <path
       style="fill:#000000;fill-opacity:1;stroke:#000000;stroke-width:0.87129891px;stroke-linecap:butt;stroke-linejoin:miter;stroke-opacity:1"
       d="m 154.12121,836.36785 c 40.1315,-6.8329 -21.67063,-170.75968 -37.12484,-129.42437 -5.30687,14.19433 17.6583,107.46547 37.12484,129.42437 z"
       id="path4105"
       inkscape:connector-curvature="0"
       sodipodi:nodetypes="csc" />
    <path
       style="fill:#000000;fill-opacity:1;stroke:#000000;stroke-width:1.13571489px;stroke-linecap:butt;stroke-linejoin:miter;stroke-opacity:1"
       d="m 191.7439,820.70312 c 44.30142,-2.76734 2.20002,-268.6357 -20.65558,-207.63788 -7.84849,20.9463 2.95079,169.8452 20.65558,207.63788 z"
       id="path4105-1"
       inkscape:connector-curvature="0"
       sodipodi:nodetypes="csc" />
    <path
       style="fill:#000000;fill-opacity:1;stroke:#000000;stroke-width:1.13286686px;stroke-linecap:butt;stroke-linejoin:miter;stroke-opacity:1"
       d="m 247.33711,818.0516 c 40.44811,-3.01581 2.00864,-292.75342 -18.85899,-226.27933 -7.16583,22.82685 2.69413,185.09366 18.85899,226.27933 z"
       id="path4105-1-2"
       inkscape:connector-curvature="0"
       sodipodi:nodetypes="csc" />
    <path
       style="fill:#000000;fill-opacity:1;stroke:#000000;stroke-width:1.11112893px;stroke-linecap:butt;stroke-linejoin:miter;stroke-opacity:1"
       d="m 313.40209,821.59941 c 42.3994,-2.76765 2.10554,-268.66542 -19.76877,-207.66086 -7.51152,20.94862 2.82412,169.86399 19.76877,207.66086 z"
       id="path4105-1-3"
       inkscape:connector-curvature="0"
       sodipodi:nodetypes="csc" />
  </g>
</svg>
