<?xml version="1.0" encoding="UTF-8" standalone="no"?>
<!-- Created with Inkscape (http://www.inkscape.org/) -->

<svg
   xmlns:dc="http://purl.org/dc/elements/1.1/"
   xmlns:cc="http://creativecommons.org/ns#"
   xmlns:rdf="http://www.w3.org/1999/02/22-rdf-syntax-ns#"
   xmlns:svg="http://www.w3.org/2000/svg"
   xmlns="http://www.w3.org/2000/svg"
   xmlns:sodipodi="http://sodipodi.sourceforge.net/DTD/sodipodi-0.dtd"
   xmlns:inkscape="http://www.inkscape.org/namespaces/inkscape"
   width="500"
   height="500"
   id="svg2"
   version="1.1"
   inkscape:version="0.48.4 r9939"
   sodipodi:docname="1.svg">
  <defs
     id="defs4" />
  <sodipodi:namedview
     id="base"
     pagecolor="#ffffff"
     bordercolor="#666666"
     borderopacity="1.0"
     inkscape:pageopacity="0.0"
     inkscape:pageshadow="2"
     inkscape:zoom="1.038"
     inkscape:cx="250"
     inkscape:cy="245.14349"
     inkscape:document-units="px"
     inkscape:current-layer="layer1"
     showgrid="false"
     inkscape:window-width="1366"
     inkscape:window-height="706"
     inkscape:window-x="-8"
     inkscape:window-y="-8"
     inkscape:window-maximized="1" />
  <metadata
     id="metadata7">
    <rdf:RDF>
      <cc:Work
         rdf:about="">
        <dc:format>image/svg+xml</dc:format>
        <dc:type
           rdf:resource="http://purl.org/dc/dcmitype/StillImage" />
        <dc:title></dc:title>
      </cc:Work>
    </rdf:RDF>
  </metadata>
  <g
     inkscape:label="Layer 1"
     inkscape:groupmode="layer"
     id="layer1"
     transform="translate(0,-552.36218)">
    <path
       style="fill:none;stroke:#000000;stroke-width:10;stroke-linecap:butt;stroke-linejoin:miter;stroke-miterlimit:4;stroke-opacity:1;stroke-dasharray:none"
       d="m 273.38203,642.91386 c -23.62782,-18.70299 -78.34111,-37.39217 -112.34713,-37.39217 -112.119229,0 -174.163247,184.59035 -27.58248,184.59035 62.63996,0 150.56844,-0.64548 168.11068,-53.27215 9.96135,-29.88406 -32.54717,-82.37457 -27.3195,-95.44377"
       id="path3789"
       inkscape:connector-curvature="0"
       sodipodi:nodetypes="csssc" />
    <path
       style="fill:none;stroke:#000000;stroke-width:10;stroke-linecap:butt;stroke-linejoin:miter;stroke-miterlimit:4;stroke-opacity:1;stroke-dasharray:none"
       d="m 81.166328,772.94327 c -10.287081,25.00691 -24.165579,50.81091 -29.704187,78.50396 -9.049398,45.24698 -47.7461898,160.52517 6.365186,163.37317 17.085433,0.8991 234.355763,16.9969 247.086053,1.7204 28.42892,-34.11471 -0.77056,-355.6591 -7.33077,-368.7795 -0.95819,-1.91637 -22.90712,-5.12614 -24.20058,-5.9022"
       id="path3793"
       inkscape:connector-curvature="0"
       sodipodi:nodetypes="cssssc" />
    <path
       style="fill:none;stroke:#000000;stroke-width:10;stroke-linecap:butt;stroke-linejoin:miter;stroke-miterlimit:4;stroke-opacity:1;stroke-dasharray:none"
       d="m 221.56344,615.37409 c 8.92914,-98.74631 92.80648,2.70942 17.18793,9.42511"
       id="path3795"
       inkscape:connector-curvature="0"
       sodipodi:nodetypes="cc" />
    <path
       style="fill:none;stroke:#000000;stroke-width:10;stroke-linecap:butt;stroke-linejoin:miter;stroke-miterlimit:4;stroke-opacity:1;stroke-dasharray:none"
       d="m 224.88094,616.90406 c 1.91745,-42.27091 59.92764,-35.4866 8.42249,3.90927"
       id="path3797"
       inkscape:connector-curvature="0"
       sodipodi:nodetypes="cc" />
    <path
       style="fill:none;stroke:#000000;stroke-width:10;stroke-linecap:butt;stroke-linejoin:miter;stroke-miterlimit:4;stroke-opacity:1;stroke-dasharray:none"
       d="m 300.78695,649.60025 c 108.07643,-2.6923 284.58558,403.79985 8.27159,363.79445"
       id="path3799"
       inkscape:connector-curvature="0"
       sodipodi:nodetypes="cc" />
    <path
       style="fill:none;stroke:#000000;stroke-width:10;stroke-linecap:butt;stroke-linejoin:miter;stroke-miterlimit:4;stroke-opacity:1;stroke-dasharray:none"
       d="m 301.69286,667.3512 c 110.38203,81.34263 211.89027,319.55585 13.96321,319.55585"
       id="path3801"
       inkscape:connector-curvature="0"
       sodipodi:nodetypes="cc" />
    <path
       style="fill:#000000;fill-opacity:1;stroke:#000000;stroke-width:10;stroke-linecap:butt;stroke-linejoin:miter;stroke-miterlimit:4;stroke-opacity:1;stroke-dasharray:none"
       d="m 124.4813,766.26402 c -9.65721,3.22655 -13.20613,17.47797 -18.09298,26.70867 -31.144505,58.82853 18.95455,29.63209 18.95455,-25.8471"
       id="path3813"
       inkscape:connector-curvature="0"
       sodipodi:nodetypes="csc" />
    <path
       style="fill:none;stroke:#000000;stroke-width:10;stroke-linecap:butt;stroke-linejoin:miter;stroke-miterlimit:4;stroke-opacity:1;stroke-dasharray:none"
       d="m 222.54335,873.17142 c -22.87869,-6.6613 -94.45743,-9.63391 -118.49711,-9.63391 -46.907026,0 -56.738615,6.28765 -64.547204,59.73025 -1.373634,9.40126 -8.458071,57.05253 -0.963391,64.54721 9.28645,9.28645 72.453565,12.007 83.815025,12.52413 10.95938,0.4987 64.54721,5.8049 78.99808,-24.08482 3.73895,-7.73354 20.88402,-97.82014 18.30442,-102.11947"
       id="path3823"
       inkscape:connector-curvature="0"
       sodipodi:nodetypes="csssssc" />
  </g>
</svg>
