<?xml version="1.0" encoding="UTF-8" standalone="no"?>
<!-- Created with Inkscape (http://www.inkscape.org/) -->

<svg
   xmlns:dc="http://purl.org/dc/elements/1.1/"
   xmlns:cc="http://creativecommons.org/ns#"
   xmlns:rdf="http://www.w3.org/1999/02/22-rdf-syntax-ns#"
   xmlns:svg="http://www.w3.org/2000/svg"
   xmlns="http://www.w3.org/2000/svg"
   xmlns:sodipodi="http://sodipodi.sourceforge.net/DTD/sodipodi-0.dtd"
   xmlns:inkscape="http://www.inkscape.org/namespaces/inkscape"
   width="500"
   height="500"
   id="svg2"
   version="1.1"
   inkscape:version="0.48.4 r9939"
   sodipodi:docname="2.svg">
  <defs
     id="defs4" />
  <sodipodi:namedview
     id="base"
     pagecolor="#ffffff"
     bordercolor="#666666"
     borderopacity="1.0"
     inkscape:pageopacity="0.0"
     inkscape:pageshadow="2"
     inkscape:zoom="1.038"
     inkscape:cx="250"
     inkscape:cy="254.85651"
     inkscape:document-units="px"
     inkscape:current-layer="layer1"
     showgrid="false"
     inkscape:window-width="1366"
     inkscape:window-height="706"
     inkscape:window-x="-8"
     inkscape:window-y="-8"
     inkscape:window-maximized="1" />
  <metadata
     id="metadata7">
    <rdf:RDF>
      <cc:Work
         rdf:about="">
        <dc:format>image/svg+xml</dc:format>
        <dc:type
           rdf:resource="http://purl.org/dc/dcmitype/StillImage" />
        <dc:title></dc:title>
      </cc:Work>
    </rdf:RDF>
  </metadata>
  <g
     inkscape:label="Layer 1"
     inkscape:groupmode="layer"
     id="layer1"
     transform="translate(0,-552.36218)">
    <path
       style="fill:none;stroke:#000000;stroke-width:9.67822552;stroke-linecap:butt;stroke-linejoin:miter;stroke-miterlimit:4;stroke-opacity:1;stroke-dasharray:none"
       d="m 404.57127,675.2196 c -14.22389,-8.09273 -26.05522,-23.73173 -41.0812,-29.83821 -33.49403,-13.6118 -66.61078,-22.31748 -99.64375,-37.79506 -15.20387,-7.12376 -30.99119,-9.4037 -47.19969,-10.94068 -7.55467,-0.71637 -26.93087,-8.17212 -22.72576,-0.99461 12.87856,21.98189 58.42182,26.97313 76.91799,39.78428 24.06275,16.66678 44.66727,37.87989 69.92545,52.71417 25.42066,14.9297 53.15134,23.01785 77.79205,38.78967 38.51542,24.65264 96.03362,33.21135 43.26636,-14.91911 -24.70773,-15.64157 -40.32316,-27.16907 -57.25145,-36.80045 z"
       id="path3825"
       inkscape:connector-curvature="0"
       sodipodi:nodetypes="sssssssscs" />
    <path
       style="fill:none;stroke:#000000;stroke-width:9.67822552;stroke-linecap:butt;stroke-linejoin:miter;stroke-miterlimit:4;stroke-opacity:1;stroke-dasharray:none"
       d="m 192.33387,596.69578 c -28.05183,35.85945 -67.20735,108.99841 -84.62993,150.16059 -21.753842,51.39509 -40.821287,101.23387 -78.891328,137.21122 -4.772488,4.51015 54.12994,54.89971 55.768885,56.68092 21.905083,23.80605 63.506073,54.41626 93.649633,66.62489 11.70464,4.7405 102.06663,31.324 117.85124,23.8655 15.08375,-7.1271 15.21622,-23.1971 22.07018,-37.77091 9.76196,-20.75702 28.51321,-39.53003 39.98524,-59.6641 9.21954,-16.18079 11.45341,-38.39198 16.83589,-55.68651 12.1724,-39.11119 52.3074,-82.5038 85.2317,-107.39536 12.36298,-9.34673 10.77392,-13.91937 21.23984,-24.86004"
       id="path3827"
       inkscape:connector-curvature="0"
       sodipodi:nodetypes="csssssssssc" />
    <path
       style="fill:none;stroke:#000000;stroke-width:10.30921459;stroke-linecap:butt;stroke-linejoin:miter;stroke-miterlimit:4;stroke-opacity:1;stroke-dasharray:none"
       d="m 137.31931,685.34835 c 17.63378,14.0387 32.4815,30.14473 49.65903,45.68631 34.44427,31.16386 69.24224,54.23001 105.27714,79.45444 13.77092,9.63964 24.11902,4.11407 35.7545,9.9318 19.59843,9.79922 40.04385,23.15978 52.63857,35.7545"
       id="path3831"
       inkscape:connector-curvature="0" />
    <path
       style="fill:none;stroke:#000000;stroke-width:10.30921459;stroke-linecap:butt;stroke-linejoin:miter;stroke-miterlimit:4;stroke-opacity:1;stroke-dasharray:none"
       d="M 96.598907,772.74824 C 146.21423,847.3877 231.75261,880.5489 306.16,917.7526 c 16.17452,8.08726 31.57438,21.56838 44.69313,26.81587"
       id="path3835"
       inkscape:connector-curvature="0"
       sodipodi:nodetypes="csc" />
    <path
       style="fill:none;stroke:#000000;stroke-width:10.30921459;stroke-linecap:butt;stroke-linejoin:miter;stroke-miterlimit:4;stroke-opacity:1;stroke-dasharray:none"
       d="m 305.16683,662.50519 c 27.53163,-4.74331 52.63857,1.09003 52.63857,31.78179"
       id="path3837"
       inkscape:connector-curvature="0" />
    <path
       style="fill:none;stroke:#000000;stroke-width:10.30921459;stroke-linecap:butt;stroke-linejoin:miter;stroke-miterlimit:4;stroke-opacity:1;stroke-dasharray:none"
       d="m 355.81904,676.40973 c 24.05096,3.17214 59.00199,16.44435 54.62493,42.70676"
       id="path3839"
       inkscape:connector-curvature="0" />
    <path
       style="fill:none;stroke:#000000;stroke-width:10.4923172;stroke-linecap:butt;stroke-linejoin:miter;stroke-miterlimit:4;stroke-opacity:1;stroke-dasharray:none"
       d="m 244.67437,622.84466 c 19.06993,-12.38453 44.51002,5.91404 44.51002,25.66446"
       id="path3841"
       inkscape:connector-curvature="0" />
  </g>
</svg>
